<svg xmlns="http://www.w3.org/2000/svg" width="79" height="64" fill="none"><g clip-path="url(#a)"><path fill="#4B4359" fill-rule="evenodd" d="M5.649 54.938h66.833a3.32 3.32 0 0 0 3.313-3.312V14.41a3.322 3.322 0 0 0-3.313-3.314H5.649a3.322 3.322 0 0 0-3.313 3.314v37.216a3.32 3.32 0 0 0 3.313 3.312Z" clip-rule="evenodd"/><path fill="#574E66" fill-rule="evenodd" d="M5.649 54.938h63.379a3.322 3.322 0 0 0 3.314-3.312V14.41a3.322 3.322 0 0 0-3.314-3.314H5.648a3.322 3.322 0 0 0-3.312 3.314v37.216a3.32 3.32 0 0 0 3.313 3.312Z" clip-rule="evenodd"/><path fill="#96D3FF" d="M7.22 15.981h63.683v34.072H7.221V15.981Z"/><path fill="#E1DAE7" fill-rule="evenodd" d="M4.529 64H73.6a4.542 4.542 0 0 0 4.531-4.526v-4.536H-.002v4.536A4.545 4.545 0 0 0 4.528 64Z" clip-rule="evenodd"/><path fill="#EBE6EF" fill-rule="evenodd" d="M4.529 64h65.62a4.545 4.545 0 0 0 4.529-4.526v-4.536H-.002v4.536A4.545 4.545 0 0 0 4.528 64Z" clip-rule="evenodd"/><path fill="#40374F" fill-rule="evenodd" d="M31.201 59.474h15.733a2.272 2.272 0 0 0 2.265-2.265v-2.27H28.932v2.264a2.274 2.274 0 0 0 2.269 2.27Z" clip-rule="evenodd"/><path fill="#4B4359" fill-rule="evenodd" d="M31.201 59.474h11.92a2.27 2.27 0 0 0 2.265-2.271v-2.265H28.932v2.265a2.274 2.274 0 0 0 2.269 2.27Z" clip-rule="evenodd"/><path fill="#74C3FC" d="M67.165 15.981h3.745v34.072h-3.745V15.981Z"/><path fill="#E1DAE7" d="M13.307 6.924h51.517v43.13H13.307V6.923Z"/><path fill="#EBE6EF" d="M13.307 6.924h46.88v43.13h-46.88V6.923Z"/><path fill="#3198FC" fill-rule="evenodd" d="M16.241 0H61.89a2.94 2.94 0 0 1 2.935 2.938v3.986H13.307V2.938A2.943 2.943 0 0 1 16.24 0Z" clip-rule="evenodd"/><path fill="#4BB3FD" fill-rule="evenodd" d="M16.241 0h41.007a2.941 2.941 0 0 1 2.939 2.938v3.986h-46.88V2.938A2.943 2.943 0 0 1 16.24 0Z" clip-rule="evenodd"/><path fill="#F24C00" d="M25.997 4.417a.953.953 0 0 1 0-1.906h.103a.953.953 0 1 1 0 1.906h-.103Z"/><path fill="#08A88A" d="M22.446 4.417a.953.953 0 0 1 0-1.906h.103a.953.953 0 1 1 0 1.906h-.103Z"/><path fill="#FFC738" d="M18.896 4.417a.953.953 0 0 1 0-1.906H19a.953.953 0 1 1 0 1.906h-.104Z"/><path fill="#EBE6EF" d="M34.563 4.416a.953.953 0 0 1 0-1.905h24.944a.953.953 0 0 1 0 1.905H34.563Z"/><path fill="#FFB122" fill-rule="evenodd" d="M26.915 27.852a7.565 7.565 0 1 0-7.563-7.563 7.572 7.572 0 0 0 7.563 7.563Z" clip-rule="evenodd"/><path fill="#FFC738" fill-rule="evenodd" d="M25.457 27.712a7.563 7.563 0 0 1 0-14.842 7.562 7.562 0 0 1 0 14.842Z" clip-rule="evenodd"/><path fill="#058B6A" fill-rule="evenodd" d="M43.252 44.25h2.782a.794.794 0 0 0 .794-.794v-2.779a.794.794 0 0 0-.794-.794h-2.782a.794.794 0 0 0-.794.794v2.783a.795.795 0 0 0 .794.79Zm0-27.156h2.782a.794.794 0 0 0 .794-.794v-2.777a.794.794 0 0 0-.794-.794h-2.782a.794.794 0 0 0-.794.794V16.3a.795.795 0 0 0 .794.797v-.003Zm0 9.052h2.782a.794.794 0 0 0 .794-.794v-2.776a.794.794 0 0 0-.794-.794h-2.782a.794.794 0 0 0-.794.794v2.778a.794.794 0 0 0 .794.79v.002Zm0 9.052h2.782a.794.794 0 0 0 .794-.794v-2.78a.794.794 0 0 0-.794-.794h-2.782a.794.794 0 0 0-.794.794v2.782a.794.794 0 0 0 .794.792Z" clip-rule="evenodd"/><path fill="#08A88A" fill-rule="evenodd" d="M43.252 44.25h1.391v-4.365h-1.39a.794.794 0 0 0-.795.794v2.782a.794.794 0 0 0 .794.794v-.005Zm1.391-9.052v-4.367h-1.39a.794.794 0 0 0-.795.794v2.782a.794.794 0 0 0 .794.795l1.391-.004Zm0-9.052V21.78h-1.39a.794.794 0 0 0-.795.794v2.778a.794.794 0 0 0 .794.794l1.391.001Zm0-9.052v-4.369h-1.39a.794.794 0 0 0-.795.794v2.778a.794.794 0 0 0 .794.794l1.391.003Z" clip-rule="evenodd"/><path fill="#574E66" d="M50.757 44.782a.953.953 0 0 1 0-1.905h9.407a.953.953 0 0 1 0 1.905h-9.407Zm0-27.156a.953.953 0 0 1 0-1.906h9.407a.953.953 0 0 1 0 1.906h-9.407Zm0-3.524a.953.953 0 1 1 0-1.905h9.407a.953.953 0 0 1 0 1.905h-9.407Zm0 12.578a.953.953 0 0 1 0-1.906h9.407a.953.953 0 0 1 0 1.906h-9.407Zm0-3.53a.954.954 0 0 1-.88-1.318.952.952 0 0 1 .88-.588h9.407a.952.952 0 1 1 0 1.906h-9.407Zm0 12.577a.953.953 0 0 1 0-1.905h9.407a.953.953 0 0 1 0 1.905h-9.407Zm0-3.524a.953.953 0 0 1 0-1.905h9.407a.953.953 0 0 1 0 1.905h-9.407Zm0 9.052a.953.953 0 0 1 0-1.905h9.407a.953.953 0 0 1 0 1.905h-9.407Z"/><path fill="#74C3FC" fill-rule="evenodd" d="M19.335 45.008H34.5a1.351 1.351 0 0 0 1.35-1.347V34.37a1.355 1.355 0 0 0-1.35-1.35H19.335a1.355 1.355 0 0 0-1.352 1.35v9.292a1.352 1.352 0 0 0 1.352 1.347Z" clip-rule="evenodd"/><path fill="#96D3FF" fill-rule="evenodd" d="M19.335 45.008h12.01a1.351 1.351 0 0 0 1.35-1.347V34.37a1.355 1.355 0 0 0-1.35-1.35h-12.01a1.355 1.355 0 0 0-1.352 1.35v9.292a1.352 1.352 0 0 0 1.352 1.347Z" clip-rule="evenodd"/><path fill="#4BB3FD" fill-rule="evenodd" d="M27.928 45.008h6.574a1.351 1.351 0 0 0 1.35-1.347v-1.958l-5.132-5.13-5.614 5.611 2.822 2.824Z" clip-rule="evenodd"/><path fill="#74C3FC" fill-rule="evenodd" d="M19.335 45.008h8.593l-5.646-5.646-4.299 4.3a1.352 1.352 0 0 0 1.352 1.346Z" clip-rule="evenodd"/><path fill="#FFC738" d="M25.548 38.215a.953.953 0 1 1 0-1.907h.103a.953.953 0 0 1 0 1.907h-.103Z"/><path fill="#4BB3FD" fill-rule="evenodd" d="m29.99 19.703-4.606-2.655a.667.667 0 0 0-.675 0 .658.658 0 0 0-.337.585v5.315a.674.674 0 0 0 1.012.586l4.605-2.657a.654.654 0 0 0 .338-.584.664.664 0 0 0-.338-.586v-.004Z" clip-rule="evenodd"/></g><defs><clipPath id="a"><path fill="#fff" d="M0 0h78.131v64H0z"/></clipPath></defs></svg>