<svg xmlns="http://www.w3.org/2000/svg" width="62" height="64" fill="none"><g clip-path="url(#a)"><path fill="#FFF5CA" d="M36.71 64C50.185 64 61.11 53.062 61.11 39.57c0-13.493-10.925-24.431-24.402-24.431s-24.402 10.938-24.402 24.43C12.307 53.063 23.232 64 36.709 64Z"/><path fill="#445EA0" d="M30.125 49.157h-11.51v4.958h11.51v-4.958Z"/><path fill="#293D7C" d="M35.511 56.583a.61.61 0 0 1-.61.611H13.84a.61.61 0 0 1-.61-.61v-1.98a.611.611 0 0 1 .61-.611h21.06a.61.61 0 0 1 .61.61v1.98Z"/><path fill="#1A2B63" d="M15.652 56.583v-1.98a.611.611 0 0 1 .61-.61h-2.42a.61.61 0 0 0-.61.61v1.98a.61.61 0 0 0 .61.611h2.42a.61.61 0 0 1-.61-.61Z"/><path fill="#293D7C" d="M41.603 42.12H0v5.939a1.222 1.222 0 0 0 1.22 1.221h40.384v-7.16h-.001Z"/><path fill="#1A2B63" d="M2.42 48.059v-5.94H0v5.94a1.222 1.222 0 0 0 1.22 1.221h2.42a1.22 1.22 0 0 1-1.22-1.221Z"/><path fill="#445EA0" d="M47.568 14.56h-4.88v13.344a1.153 1.153 0 0 0-1.146 1.156v10.836H5.794V14.56H1.171A1.174 1.174 0 0 0 0 15.732v26.506h41.604V29.064a1.156 1.156 0 0 1 1.153-1.156h5.978V15.732a1.177 1.177 0 0 0-1.167-1.172Z"/><path fill="#293D7C" d="M5.792 16.905H2.954a.61.61 0 0 0-.61.61v21.77a.611.611 0 0 0 .61.61h2.838v-22.99ZM45.787 16.905H42.69v11.003h3.705V17.526a.611.611 0 0 0-.61-.62Z"/><path fill="#1A2B63" d="M4.766 39.285v-21.77a.611.611 0 0 1 .61-.61H2.954a.61.61 0 0 0-.61.61v21.77a.611.611 0 0 0 .61.61h2.422a.61.61 0 0 1-.61-.61Z"/><path fill="#E1EFFF" d="M24.37 46.724a.924.924 0 1 0-.001-1.849.924.924 0 0 0 0 1.849Z"/><path fill="#EAFAFF" d="M56.893 29.03a2.635 2.635 0 0 0-2.053-1.903 2.626 2.626 0 0 0-2.604 1.024.855.855 0 0 0-.22-.392l-.02-.018V15.85a1.77 1.77 0 0 0 .928-1.555V1.77A1.775 1.775 0 0 0 51.156 0H32.563a1.773 1.773 0 0 0-1.77 1.77v3.074H8.155a2.926 2.926 0 0 0-2.928 2.932v22.963l-.115 15.095a1.447 1.447 0 0 0 1.439 1.456l14.03.04.008-.013h7.923v2.9a1.955 1.955 0 0 0 1.95 1.932h19.86a1.95 1.95 0 0 0 1.943-1.946V38.599l4.364-7.573a2.617 2.617 0 0 0 .264-1.994Z"/><path fill="#E1EFFF" d="M49.118 44.056a.868.868 0 0 1-.197.234l-3.905 3.253a.867.867 0 0 1-1.41-.816l.854-5.018a.856.856 0 0 1 .104-.287l7.512-13.028c.048-.084.102-.166.16-.244a.855.855 0 0 0-.221-.392l-5.51-5.595a.872.872 0 0 0-.623-.257h-15.42a1.95 1.95 0 0 0-1.944 1.946v26.356a1.955 1.955 0 0 0 1.943 1.941h19.86a1.951 1.951 0 0 0 1.944-1.946V38.599l-3.147 5.458Z"/><path fill="#D7E8F9" d="M29.603 50.208V23.853a1.956 1.956 0 0 1 1.945-1.947h-1.087a1.95 1.95 0 0 0-1.943 1.947v26.355a1.955 1.955 0 0 0 1.943 1.941h1.087a1.95 1.95 0 0 1-1.945-1.94Z"/><path fill="#FFDF3D" d="M32.562 0h18.594a1.772 1.772 0 0 1 1.768 1.77v12.526a1.775 1.775 0 0 1-1.768 1.77H38.488l-4.164 4.169v-4.169h-1.762a1.773 1.773 0 0 1-1.769-1.77V1.77A1.777 1.777 0 0 1 32.563 0Z"/><path fill="#FCECA9" d="M35.844 16.066h-1.52v4.169l1.52-1.522v-2.647ZM32.314 14.296V1.77A1.777 1.777 0 0 1 34.084 0h-1.522a1.773 1.773 0 0 0-1.769 1.77v12.526a1.777 1.777 0 0 0 1.77 1.77h1.52a1.773 1.773 0 0 1-1.769-1.77Z"/><path fill="#72D1FB" d="M46.735 2.4a.868.868 0 0 0-.868.87v.444c-1.141.611-2.394.9-3.82.9h-4.252c-.929 0-1.683.714-1.683 1.589v2.59c0 .877.754 1.587 1.683 1.587h.925l.517 2.58a.87.87 0 0 0 .854.698h.937a.868.868 0 0 0 .869-.87v-2.4h.153c1.427 0 2.684.295 3.82.9v.44a.87.87 0 0 0 1.483.616.87.87 0 0 0 .255-.615v-8.46a.87.87 0 0 0-.873-.869Z"/><path fill="#C4DAEC" d="M30.793 4.844H8.155a2.926 2.926 0 0 0-2.928 2.932v6.063H19.32a.868.868 0 0 0 .723-.388l1.323-1.998h9.426V4.844ZM30.797 1.703v.067c-.004-.022 0-.044 0-.067Z"/><path fill="#83A7C5" fill-rule="evenodd" d="M10.486 10.213a.87.87 0 0 0 .614-1.487.87.87 0 1 0-1.23 1.232.868.868 0 0 0 .616.255ZM13.363 10.213a.869.869 0 0 0 .854-1.04.872.872 0 0 0-1.185-.636.87.87 0 0 0 .33 1.676ZM16.24 10.213a.869.869 0 0 0 .854-1.04.87.87 0 1 0-.854 1.04Z" clip-rule="evenodd"/><path fill="#9DD46F" d="M24.677 16.707H10.703a.87.87 0 0 0-.869.87v12.326c0 .48.389.87.869.87h13.974a.87.87 0 0 0 .869-.87V17.577a.87.87 0 0 0-.869-.87Z"/><path fill="#94C961" d="M11.027 29.903V17.582a.871.871 0 0 1 .87-.87h-1.194a.868.868 0 0 0-.869.87v12.32a.87.87 0 0 0 .869.872h1.193a.871.871 0 0 1-.869-.871Z"/><path fill="#fff" d="M16.03 19.187a2.265 2.265 0 0 0-2.093 1.402 2.272 2.272 0 0 0 1.653 3.093 2.264 2.264 0 0 0 2.708-2.226 2.275 2.275 0 0 0-2.268-2.27Z"/><path fill="#FFE958" d="M56.892 29.03a2.633 2.633 0 0 0-2.196-1.927 2.628 2.628 0 0 0-2.62 1.291l-7.513 13.028a.87.87 0 0 0-.103.289l-.854 5.016a.869.869 0 0 0 1.41.816l3.904-3.253a.854.854 0 0 0 .197-.233l7.512-13.027a2.614 2.614 0 0 0 .263-2Z"/><path fill="#CADEEF" d="M47.61 28.37h4.482c.045-.076.093-.148.144-.219a.856.856 0 0 0-.22-.392l-5.51-5.594a.875.875 0 0 0-.624-.26v4.74a1.728 1.728 0 0 0 1.067 1.595c.21.086.434.13.66.13Z"/><path fill="#83A7C5" d="M35.718 44.22h-2.593a.868.868 0 0 1-.614-1.485.868.868 0 0 1 .614-.255h2.593a.869.869 0 0 1 0 1.74ZM42.011 47.745h-8.886a.868.868 0 0 1-.614-1.485.868.868 0 0 1 .614-.255h8.886a.868.868 0 0 1 .614 1.485.868.868 0 0 1-.614.255ZM42.011 44.22h-3.317a.868.868 0 0 1-.614-1.485.869.869 0 0 1 .614-.255h3.317a.869.869 0 0 1 0 1.74ZM35.718 37.177h-2.593a.868.868 0 0 1-.614-1.485.868.868 0 0 1 .614-.255h2.593a.868.868 0 0 1 .614 1.485.868.868 0 0 1-.614.255ZM42.011 40.698h-8.886a.868.868 0 0 1-.614-1.484.868.868 0 0 1 .614-.255h8.886a.868.868 0 0 1 .614 1.484.868.868 0 0 1-.614.255ZM45.171 37.177h-6.477a.868.868 0 0 1-.614-1.485.87.87 0 0 1 .614-.255h6.477a.868.868 0 0 1 .614 1.485.868.868 0 0 1-.614.255ZM46.703 33.651H33.126a.867.867 0 0 1-.901-.869.87.87 0 0 1 .9-.869h13.578a.868.868 0 0 1 .832 1.21.869.869 0 0 1-.832.529ZM36.443 30.13h-3.317a.868.868 0 0 1-.615-1.485.868.868 0 0 1 .614-.254h3.318a.868.868 0 0 1 .614 1.484.868.868 0 0 1-.614.255Z"/><path fill="#FF6969" d="M46.736 12.598a.868.868 0 0 1-.87-.87V3.27a.871.871 0 0 1 1.209-.833.868.868 0 0 1 .528.833v8.459a.871.871 0 0 1-.867.87Z"/><path fill="#83A7C5" d="m49.726 32.47 4.553 2.634 1.19-2.06-4.558-2.63-1.185 2.056Z"/><path fill="#FF6969" d="m55.469 33.043 1.16-2.013a2.636 2.636 0 0 0-.988-3.549 2.628 2.628 0 0 0-3.565.913l-1.164 2.02 4.557 2.63Z"/><path fill="#F4BAA6" d="M44.565 41.422a.871.871 0 0 0-.105.289l-.854 5.016a.87.87 0 0 0 1.412.816l3.904-3.253a.882.882 0 0 0 .197-.233l-4.554-2.635Z"/><path fill="#FFDB06" d="m44.563 41.426 5.164-8.95 1.342.773-5.162 8.953-1.343-.776Z"/><path fill="#A3C0D9" d="M5.231 7.771v6.068h1.94V7.72a2.934 2.934 0 0 1 2.353-2.875h-1.37a2.926 2.926 0 0 0-2.923 2.927Z"/><path fill="#CCE6F2" d="M7.115 47.284 7.17 13.84H5.231c-.039 10.658-.08 21.316-.122 31.973a1.467 1.467 0 0 0 1.458 1.466l.548.006Z"/><path fill="#FF6969" d="M41.894 4.615h-4.1c-.928 0-1.682.713-1.682 1.588v2.59c0 .877.754 1.587 1.683 1.587h4.1V4.615Z"/><path fill="#F75E5E" d="M38.485 9.466c-.927 0-1.682-.714-1.682-1.588V5.284c0-.135.02-.27.056-.4a1.572 1.572 0 0 0-.747 1.322v2.59c0 .878.755 1.588 1.683 1.588h4.1v-.918h-3.41Z"/><path fill="#41739F" d="M39.238 12.967a.869.869 0 0 0 .854.699h.936a.868.868 0 0 0 .869-.87v-2.409h-3.172l.513 2.58Z"/><path fill="#376F99" d="m40.283 13.35-.366-1.807a.643.643 0 0 1 .626-.772h1.342v-.384h-3.172l.517 2.58a.869.869 0 0 0 .854.699h.326a.875.875 0 0 1-.133-.315h.006Z"/><path fill="#51C8F2" d="M45.868 11.287V7.31c0 2.124-3.974 2.157-3.974 2.157v.921h.154c1.425 0 2.68.296 3.82.9Z"/><path fill="#F75E5E" d="M53.406 29.186a2.639 2.639 0 0 1 2.898-1.242 2.631 2.631 0 0 0-4.227.448l-1.165 2.02 1.342.773 1.152-2Z"/><path fill="#759FBC" d="m52.253 31.188-1.343-.773-1.185 2.055 1.342.775 1.186-2.057Z"/><path fill="#83A7C5" d="m43.792 45.605-.191 1.122a.87.87 0 0 0 .929 1.015.866.866 0 0 0 .481-.199l.875-.733-2.094-1.205Z"/><path fill="#EFAD9C" d="m43.793 45.605 1.334.772.663-3.877a.86.86 0 0 1 .104-.287l.011-.02-1.342-.774a.895.895 0 0 0-.104.288l-.667 3.894.001.004Z"/><path fill="#759FBC" d="m43.793 45.605-.191 1.122a.869.869 0 0 0 1.321.88.682.682 0 0 1 .008-.086l.196-1.144-1.334-.772Z"/><path fill="#fff" d="M21.652 21.972a1 1 0 0 0-.713-.297.975.975 0 0 0-.704.314l-3.499 3.805-1.079-1.116a.97.97 0 0 0-.699-.296h-.012a.967.967 0 0 0-.704.314l-3.215 3.493v1.314h13.326v-4.736l-2.701-2.795Z"/></g><defs><clipPath id="a"><path fill="#fff" d="M0 0h61.113v64H0z"/></clipPath></defs></svg>