<svg xmlns="http://www.w3.org/2000/svg" width="64" height="64" fill="none"><g clip-path="url(#a)"><path fill="#468FCC" fill-rule="evenodd" d="M64.002 40.432a5.633 5.633 0 0 0-5.633-5.632H5.627a5.632 5.632 0 0 0-5.621 5.632V58.37a5.633 5.633 0 0 0 5.62 5.632H58.37a5.634 5.634 0 0 0 5.633-5.632V40.432ZM46.475 29.755h13.86a3.666 3.666 0 1 0 0-7.331h-13.86a3.668 3.668 0 1 0 0 7.331Z" clip-rule="evenodd"/><path fill="#468FCC" d="M37.098 29.755a3.666 3.666 0 1 0 0-7.333 3.666 3.666 0 0 0 0 7.333Z"/><path fill="#468FCC" fill-rule="evenodd" d="M46.474 18.823h13.86a3.665 3.665 0 1 0 0-7.33h-13.86a3.665 3.665 0 1 0 0 7.33Z" clip-rule="evenodd"/><path fill="#468FCC" d="M37.098 18.825a3.666 3.666 0 1 0 0-7.333 3.666 3.666 0 0 0 0 7.333Z"/><path fill="#468FCC" fill-rule="evenodd" d="M46.475 7.893h13.86a3.666 3.666 0 1 0 0-7.33h-13.86a3.666 3.666 0 1 0 0 7.33Z" clip-rule="evenodd"/><path fill="#468FCC" d="M37.098 7.893a3.666 3.666 0 1 0 0-7.332 3.666 3.666 0 0 0 0 7.332Z"/><path fill="#E72C4F" fill-rule="evenodd" d="M15.721.568a.562.562 0 0 0-.562-.562 15.158 15.158 0 1 0 15.157 15.153.562.562 0 0 0-.562-.563h-7.296a.562.562 0 0 0-.562.563 6.737 6.737 0 1 1-6.737-6.737.562.562 0 0 0 .562-.562V.568Z" clip-rule="evenodd"/><path fill="#FFA53F" fill-rule="evenodd" d="M29.755 15.72a.562.562 0 0 0 .562-.561A15.158 15.158 0 0 0 15.16.006a.562.562 0 0 0-.562.562V7.86a.562.562 0 0 0 .562.562 6.737 6.737 0 0 1 6.737 6.737.562.562 0 0 0 .562.562l7.297-.001Z" clip-rule="evenodd"/><path fill="#E2F4FD" fill-rule="evenodd" d="M60.959 40.432a2.59 2.59 0 0 0-2.59-2.59H5.627a2.59 2.59 0 0 0-2.589 2.59V58.37a2.59 2.59 0 0 0 2.589 2.59h52.742a2.591 2.591 0 0 0 2.59-2.59V40.432Z" clip-rule="evenodd"/><path fill="#FFA53F" fill-rule="evenodd" d="m45.326 47.814-9.643 6.245-10.672-4.346a.563.563 0 0 0-.4-.01l-4.759 1.7a.562.562 0 0 0-.022 1.049l14.7 5.989a3.372 3.372 0 0 0 3.103-.293l10.3-6.672a2.249 2.249 0 0 0 4.29 1.227L54.73 46.7a2.248 2.248 0 0 0-2.038-3.111l-6.505-.102a2.248 2.248 0 0 0-.861 4.334v-.007Zm-25.014 1.041a.562.562 0 0 0 .024-1.05l-16.52-6.728a.562.562 0 0 0-.772.52v3.639a.562.562 0 0 0 .348.52l11.76 4.788c.128.053.27.056.4.01l4.76-1.699Z" clip-rule="evenodd"/><path fill="#00516A" fill-rule="evenodd" d="M29.911 44.233 3.416 53.695a.562.562 0 0 0-.372.529V57.8a.562.562 0 0 0 .756.523l27.8-9.928a2.249 2.249 0 0 0 3.935 2.097l3.773-5.301a2.247 2.247 0 0 0-1.3-3.485l-6.323-1.538a2.248 2.248 0 0 0-1.765 4.059l-.009.005Z" clip-rule="evenodd"/></g><defs><clipPath id="a"><path fill="#fff" d="M0 0h64v64H0z"/></clipPath></defs></svg>