<svg xmlns="http://www.w3.org/2000/svg" width="60" height="64" fill="none"><g clip-path="url(#a)"><path fill="#F7F6F7" d="M56.112 64H17.145a3.9 3.9 0 0 1-2.749-1.131 3.852 3.852 0 0 1-1.14-2.731V3.861c.001-1.024.41-2.006 1.14-2.73A3.9 3.9 0 0 1 17.145 0h26.887l15.974 15.875v44.261a3.844 3.844 0 0 1-1.141 2.734A3.89 3.89 0 0 1 56.112 64Z"/><path fill="#EDEBED" d="M56.112 15.875v44.261c0 1.025-.41 2.007-1.138 2.732A3.9 3.9 0 0 1 52.226 64h3.886a3.9 3.9 0 0 0 2.75-1.132A3.852 3.852 0 0 0 60 60.136V15.875h-3.888Z"/><path fill="#D3CED4" d="M48.813 13.07H20.556a1.3 1.3 0 0 1-.916-.377 1.283 1.283 0 0 1-.38-.91v-4.7c0-.342.137-.67.38-.91a1.3 1.3 0 0 1 .916-.378h28.257a1.3 1.3 0 0 1 .916.377c.243.242.38.57.38.91v4.7c0 .342-.137.67-.38.91a1.3 1.3 0 0 1-.916.378Z"/><path fill="#EDEBED" d="M60 19.733H47.92a3.899 3.899 0 0 1-2.747-1.13 3.85 3.85 0 0 1-1.14-2.728V3.863L60 19.733Z"/><path fill="#C4BCC6" d="M60 15.875H47.92c-1.03 0-2.02-.407-2.748-1.131a3.85 3.85 0 0 1-1.139-2.732V0L60 15.875Z"/><path fill="#D3CED4" d="M54.169 22.343h-22.66a.975.975 0 0 1-.687-.284.963.963 0 0 1 0-1.366.975.975 0 0 1 .687-.283h22.66c.258 0 .505.102.687.283a.963.963 0 0 1 0 1.366.975.975 0 0 1-.687.284ZM54.17 28.137H32.866a.975.975 0 0 1-.688-.283.963.963 0 0 1 .688-1.649h21.302c.258 0 .505.102.688.283a.963.963 0 0 1 0 1.366.975.975 0 0 1-.688.284ZM54.17 33.931H32.866a.975.975 0 0 1-.665-.294.963.963 0 0 1 .665-1.637h21.302a.977.977 0 0 1 .93.588.96.96 0 0 1-.22 1.073.974.974 0 0 1-.71.27ZM54.169 39.726H30.923a.976.976 0 0 1-.93-.587.96.96 0 0 1 .548-1.28.978.978 0 0 1 .382-.064H54.17a.978.978 0 0 1 .93.588.96.96 0 0 1-.547 1.28.976.976 0 0 1-.383.063ZM54.168 45.521H25.094a.978.978 0 0 1-.93-.588.96.96 0 0 1 .547-1.28.976.976 0 0 1 .383-.063h29.074a.976.976 0 0 1 .93.588.963.963 0 0 1-.547 1.28.978.978 0 0 1-.383.063ZM54.168 51.316H19.26a.975.975 0 0 1-.687-.283.963.963 0 0 1 0-1.366.975.975 0 0 1 .687-.283h34.908c.258 0 .505.102.688.283a.963.963 0 0 1 0 1.366.976.976 0 0 1-.688.283ZM54.168 57.111H19.26a.975.975 0 0 1-.687-.283.963.963 0 0 1 0-1.366.975.975 0 0 1 .687-.283h34.908a.977.977 0 0 1 .899.596.96.96 0 0 1-.527 1.263.978.978 0 0 1-.372.073Z"/><path fill="#EDEBED" d="M13.257 13.783v31.863h3.208a2.888 2.888 0 0 0 2.033-.838 2.852 2.852 0 0 0 .843-2.02v-.598a13.68 13.68 0 0 0 1.728-.994l.515.297a2.89 2.89 0 0 0 3.929-1.048l3.209-5.535c.379-.656.481-1.435.285-2.166a2.864 2.864 0 0 0-1.336-1.735l-.52-.299a14.724 14.724 0 0 0 0-2l.52-.3a2.865 2.865 0 0 0 1.336-1.734c.197-.731.095-1.51-.284-2.166l-3.21-5.535a2.862 2.862 0 0 0-1.747-1.334 2.892 2.892 0 0 0-2.184.287l-.513.303a13.726 13.726 0 0 0-1.727-.992v-.599a2.85 2.85 0 0 0-.843-2.02 2.887 2.887 0 0 0-2.032-.837h-3.21Z"/><path fill="#FFC269" d="m26.374 33.239-1.852-1.065a.28.28 0 0 1-.136-.298 11.296 11.296 0 0 0 0-4.324.279.279 0 0 1 .136-.298l1.852-1.065a.281.281 0 0 0 .139-.281.278.278 0 0 0-.036-.104l-3.209-5.535a.285.285 0 0 0-.387-.104l-1.853 1.065a.285.285 0 0 1-.328-.032 11.322 11.322 0 0 0-3.757-2.163.284.284 0 0 1-.193-.266v-2.125a.282.282 0 0 0-.283-.283h-6.415a.285.285 0 0 0-.283.283v2.125a.281.281 0 0 1-.192.266 11.322 11.322 0 0 0-3.757 2.163.285.285 0 0 1-.329.032L3.64 20.165a.286.286 0 0 0-.388.104L.038 25.804a.281.281 0 0 0 .104.385l1.852 1.061a.281.281 0 0 1 .135.299 11.297 11.297 0 0 0 0 4.323.278.278 0 0 1-.135.298L.141 33.235a.283.283 0 0 0-.104.385l3.21 5.536a.28.28 0 0 0 .282.139.282.282 0 0 0 .105-.036l1.853-1.065a.284.284 0 0 1 .328.033c1.1.956 2.376 1.69 3.757 2.163a.283.283 0 0 1 .192.266v2.125a.28.28 0 0 0 .284.282h6.414a.285.285 0 0 0 .285-.282v-2.125a.28.28 0 0 1 .192-.265 11.337 11.337 0 0 0 3.757-2.162.285.285 0 0 1 .328-.034l1.852 1.065a.288.288 0 0 0 .315-.02.283.283 0 0 0 .074-.083l3.212-5.532a.282.282 0 0 0-.103-.385l-.001-.001Z"/><path fill="#fff" d="M14.089 34.893c2.877-.46 4.833-3.151 4.37-6.01-.463-2.86-3.171-4.804-6.048-4.344-2.878.46-4.834 3.152-4.37 6.011.463 2.86 3.17 4.804 6.048 4.343Z"/><path fill="#FFA95F" d="m26.374 33.239-1.852-1.065a.28.28 0 0 1-.135-.298 11.296 11.296 0 0 0 0-4.324.28.28 0 0 1 .135-.298l1.852-1.065a.284.284 0 0 0 .132-.171.279.279 0 0 0-.029-.214l-3.209-5.535a.284.284 0 0 0-.387-.104l-1.853 1.065a.285.285 0 0 1-.328-.032 11.323 11.323 0 0 0-3.757-2.163.285.285 0 0 1-.193-.266v-2.125a.282.282 0 0 0-.283-.283h-6.414a.285.285 0 0 0-.283.283v.047a13.788 13.788 0 0 1 7.276 4.868 13.643 13.643 0 0 1 2.848 8.245c.02 2.983-.94 5.891-2.735 8.282a13.784 13.784 0 0 1-7.208 4.967.293.293 0 0 0 .098.017h6.415a.285.285 0 0 0 .284-.281v-2.125a.28.28 0 0 1 .192-.265 11.36 11.36 0 0 0 3.757-2.163.285.285 0 0 1 .329-.033l1.851 1.064a.287.287 0 0 0 .389-.102l3.212-5.54a.28.28 0 0 0-.103-.385l-.001-.001Z"/></g><defs><clipPath id="a"><path fill="#fff" d="M0 0h60v64H0z"/></clipPath></defs></svg>