<svg xmlns="http://www.w3.org/2000/svg" width="64" height="64" fill="none"><g clip-path="url(#a)"><path fill="#EAF6FF" d="M9.47 15.599v47.5a.901.901 0 0 0 .902.901h43.263a.901.901 0 0 0 .901-.901V.9a.901.901 0 0 0-.9-.901s-29.462.018-29.9.056c-7.494.676-13.507 6.702-14.21 14.21a14.25 14.25 0 0 0-.055 1.333Z"/><path fill="#C4E2FF" d="M53.635 0h-3.09a.901.901 0 0 1 .901.901V63.1a.901.901 0 0 1-.901.901h3.09a.901.901 0 0 0 .9-.901V.9a.901.901 0 0 0-.9-.901ZM19.79 11.723a1.4 1.4 0 0 0 1.402-1.402V4.218A4.676 4.676 0 0 1 23.735.056a15.603 15.603 0 0 0-14.209 14.21 4.675 4.675 0 0 1 4.161-2.543h6.103Z"/><path fill="#314DCA" d="M43.266 43.025 46.89 39.4l6.412 6.413-3.624 3.624-6.412-6.412Z"/><path fill="#62A4FB" d="m45.164 41.125 1.73-1.731 6.412 6.412-1.731 1.732-6.41-6.413Z"/><path fill="#678D98" d="m47.864 49.5 10.25 10.242a1.284 1.284 0 0 0 1.82 0l3.691-3.692a1.285 1.285 0 0 0 0-1.821L53.376 43.985 47.864 49.5Z"/><path fill="#537983" d="m63.625 54.229-10.25-10.244-1.73 1.731L61.886 55.96a1.29 1.29 0 0 1 0 1.821l-.982.983 2.72-2.713a1.285 1.285 0 0 0 0-1.821Z"/><path fill="#FEE97D" d="M38.172 46.255c6.602 0 11.953-5.352 11.953-11.954s-5.352-11.954-11.953-11.954c-6.6 0-11.952 5.352-11.952 11.954s5.351 11.954 11.952 11.954Z"/><path fill="#FEC165" d="M46.633 25.846a11.952 11.952 0 0 0-16.097-.735 11.954 11.954 0 0 1 17.58 11.407 11.956 11.956 0 0 1-3.47 7.58c-.26.262-.531.5-.809.736a11.957 11.957 0 0 0 2.796-18.988Z"/><path fill="#81C6FF" d="M38.172 42.284a7.982 7.982 0 0 0 7.982-7.983 7.982 7.982 0 1 0-7.982 7.983Z"/><path fill="#2D62A8" d="M43.824 28.655a7.982 7.982 0 0 0-11.052-.225 7.982 7.982 0 0 1 8.827 13.085 7.985 7.985 0 0 0 2.225-12.86Z"/><path fill="#6CF5C2" d="M52.925 42.221 46.1 49.048a1.543 1.543 0 0 0 0 2.183l.582.581a1.541 1.541 0 0 0 2.183 0l6.826-6.826a1.542 1.542 0 0 0 0-2.183l-.582-.582a1.546 1.546 0 0 0-2.184 0Z"/><path fill="#19B89F" d="m55.691 42.803-.581-.582a1.544 1.544 0 0 0-2.185 0l-1.73 1.73a1.545 1.545 0 0 1 2.184 0l.581.581a1.543 1.543 0 0 1 0 2.186l1.731-1.732a1.54 1.54 0 0 0 0-2.183Z"/><path fill="#2D62A8" d="M21.29 23.942H10.44a.966.966 0 0 1 0-1.93h10.85a.968.968 0 0 1 .924 1.343.968.968 0 0 1-.924.587ZM21.29 39.314H10.44a.966.966 0 0 1 0-1.931h10.85a.966.966 0 1 1 0 1.93ZM21.29 54.684H10.44a.966.966 0 0 1 0-1.931h10.85a.966.966 0 1 1 0 1.93Z"/><path fill="#19B89F" d="M5.855 28.825a5.851 5.851 0 1 0-.001-11.702 5.851 5.851 0 0 0 0 11.702Z"/><path fill="#FEE97D" d="M5.408 25.215a.967.967 0 0 1-.682-.282l-1.567-1.57A.966.966 0 0 1 4.525 22l.883.885 2.151-2.151A.967.967 0 0 1 8.925 22.1l-2.833 2.832a.969.969 0 0 1-.684.283Z"/><path fill="#19B89F" d="M5.854 44.193a5.851 5.851 0 1 0-.001-11.702 5.851 5.851 0 0 0 0 11.702Z"/><path fill="#FEE97D" d="M5.408 40.585a.961.961 0 0 1-.683-.282l-1.567-1.568a.966.966 0 1 1 1.366-1.36l.884.875 2.15-2.151a.967.967 0 1 1 1.367 1.366L6.09 40.302a.964.964 0 0 1-.683.283Z"/><path fill="#19B89F" d="M5.852 59.56a5.85 5.85 0 1 0 0-11.702 5.85 5.85 0 0 0 0 11.702Z"/><path fill="#FEE97D" d="M5.408 55.956a.967.967 0 0 1-.683-.282l-1.567-1.569a.966.966 0 0 1 1.366-1.366l.884.886 2.151-2.151a.966.966 0 0 1 1.366 1.366l-2.833 2.834a.969.969 0 0 1-.684.282Z"/></g><defs><clipPath id="a"><path fill="#fff" d="M0 0h64v64H0z"/></clipPath></defs></svg>