<svg xmlns="http://www.w3.org/2000/svg" width="66" height="64" fill="none"><g clip-path="url(#a)"><path fill="#F95345" d="m65.26 15.401-.595 1.927c-1.656-.497-4.995-1.48-6.665-1.978l.595-1.927c1.463-4.3 7.856-2.4 6.666 1.978Z"/><path fill="#FFDF3D" d="m65.95 17.876-5.137 16.821c-.22.69-.958.855-1.58.575l-3.338-.983-3.65-1.085a1.017 1.017 0 0 1-.598-.489.993.993 0 0 1-.075-.762l5.138-16.82c.22-.69.958-.856 1.592-.575l3.339.983 3.326.983c.647.102 1.204.663.984 1.352Z"/><path fill="#FFDF3D" d="m61.628 15.54-5.72 18.749-3.65-1.085a1.016 1.016 0 0 1-.598-.489.993.993 0 0 1-.075-.762l5.138-16.82c.22-.69.97-.843 1.592-.575-.026 0 3.313.983 3.313.983Z"/><path fill="#FFFAE1" d="M42.046 6.543H12.291c-.494 0-.968.194-1.317.539-.35.344-.546.812-.546 1.3v52.3l-2.822.28a1.89 1.89 0 0 1-1.367-.407 1.838 1.838 0 0 1-.678-1.239L.01 5.841c-.048-.485.1-.97.413-1.348a1.88 1.88 0 0 1 1.257-.668L39.483.009a1.89 1.89 0 0 1 1.367.407c.384.309.627.754.678 1.24l.518 4.887Z"/><path fill="#F95345" d="M51.572 31.953a.99.99 0 0 0 .06.73c.113.228.309.405.548.496v1.39c-1.243 4.06-4.22 13.835-5.423 17.766.065.447 1.139 7.81 1.178 8.053l4.245-4.696V64H12.304a1.85 1.85 0 0 1-1.307-.536 1.842 1.842 0 0 1-.556-1.315V8.394a1.82 1.82 0 0 1 .542-1.307 1.868 1.868 0 0 1 1.321-.544H42.68l9.5 9.38V29.95c-.09.306-.505 1.659-.608 2.003Z"/><path fill="#fff" d="m48.673 46.081-1.903 6.254 1.049 7.21a.852.852 0 0 1-.26.026H16.344c-.296 0-.579-.115-.787-.321a1.09 1.09 0 0 1-.326-.776V27.69c0-.291.117-.57.325-.776.21-.206.492-.322.788-.322H47.56c.295 0 .578.116.787.322.209.205.326.485.326.776v18.39ZM20.264 24.628h-2.705a.73.73 0 0 1-.512-.21.71.71 0 0 1 0-1.01.73.73 0 0 1 .512-.21h2.705a.18.18 0 0 0 .129-.037.174.174 0 0 0 .065-.116v-.919a.183.183 0 0 0-.067-.113.188.188 0 0 0-.127-.04h-1.786a1.657 1.657 0 0 1-1.164-.459 1.614 1.614 0 0 1-.493-1.136v-.919a1.594 1.594 0 0 1 .493-1.136 1.64 1.64 0 0 1 1.164-.46h2.705c.958 0 .958 1.443 0 1.443h-2.705a.18.18 0 0 0-.129.037.174.174 0 0 0-.065.116v.919a.183.183 0 0 0 .067.113c.036.028.081.043.127.04h1.786a1.657 1.657 0 0 1 1.164.459 1.613 1.613 0 0 1 .493 1.136v.92a1.6 1.6 0 0 1-.497 1.128c-.31.297-.728.46-1.16.454ZM36.688 24.628a.733.733 0 0 1-.513-.21.715.715 0 0 1-.212-.505v-5.31a.71.71 0 0 1 .212-.505.73.73 0 0 1 1.025 0 .71.71 0 0 1 .212.506v5.309a.704.704 0 0 1-.212.506.725.725 0 0 1-.512.209ZM33.789 24.628a.784.784 0 0 1-.44-.14l-2.472-1.813v1.238c0 .944-1.463.944-1.463 0v-4.441a1.594 1.594 0 0 1 .493-1.137 1.64 1.64 0 0 1 1.164-.459h1.786a1.657 1.657 0 0 1 1.163.46 1.612 1.612 0 0 1 .493 1.136v.919c.013.867-.776 1.608-1.656 1.595h-.492l1.85 1.366c.57.37.247 1.301-.426 1.276Zm-2.912-4.097h1.98c.13-.013.18-.064.194-.153v-.92a.184.184 0 0 0-.068-.112.188.188 0 0 0-.126-.04H31.07a.179.179 0 0 0-.13.037.174.174 0 0 0-.064.116v1.072ZM39.587 24.628a.731.731 0 0 1-.513-.21.714.714 0 0 1-.212-.505v-4.441a1.594 1.594 0 0 1 .493-1.137 1.638 1.638 0 0 1 1.164-.459h1.786a1.657 1.657 0 0 1 1.164.46 1.61 1.61 0 0 1 .493 1.136c0 .663.103 1.544-.466 2.029-.673.753-2.214.408-3.171.472v1.94a.728.728 0 0 1-.222.505.749.749 0 0 1-.516.21Zm.725-4.097h1.98c.13-.013.181-.064.194-.153v-.92a.184.184 0 0 0-.067-.112.188.188 0 0 0-.127-.04h-1.786a.179.179 0 0 0-.129.037.174.174 0 0 0-.065.116v1.072ZM27.486 24.628H24.78a1.657 1.657 0 0 1-1.164-.46 1.613 1.613 0 0 1-.493-1.136V19.46a1.594 1.594 0 0 1 .493-1.136 1.638 1.638 0 0 1 1.164-.46h2.705c.957 0 .957 1.443 0 1.443H24.78a.18.18 0 0 0-.13.037.174.174 0 0 0-.064.116v3.573a.183.183 0 0 0 .067.114.188.188 0 0 0 .127.04h2.705c.957.012.957 1.442 0 1.442ZM48.944 19.319h-3.637c-.958 0-.958-1.443 0-1.443h3.637c.958 0 .958 1.442 0 1.442Z"/><path fill="#fff" d="M47.12 24.628a.734.734 0 0 1-.514-.21.712.712 0 0 1-.212-.505v-5.245a.71.71 0 0 1 .213-.506.73.73 0 0 1 1.025 0 .71.71 0 0 1 .212.506v5.245a.69.69 0 0 1-.207.51.709.709 0 0 1-.518.205Z"/><path fill="#D1D1D1" d="M33.246 31.838H19.37a.732.732 0 0 1-.67-.44.704.704 0 0 1 .158-.78.727.727 0 0 1 .512-.209h13.875c.957-.013.97 1.417 0 1.43ZM33.246 36.624H19.37a.73.73 0 0 1-.512-.209.71.71 0 0 1 0-1.01.73.73 0 0 1 .512-.21h13.875c.957-.013.97 1.417 0 1.43ZM44.039 41.41H19.37c-.958-.012-.971-1.429 0-1.442h24.668c.958.013.97 1.43 0 1.442ZM44.039 46.196H19.37c-.958-.012-.971-1.43 0-1.442h24.668c.958.013.97 1.43 0 1.442ZM41.399 50.982H19.37c-.958-.012-.971-1.43 0-1.442h22.028c.957.013.97 1.43 0 1.442ZM41.399 55.768H19.37c-.958-.013-.971-1.43 0-1.442h22.028c.957.013.97 1.43 0 1.442Z"/><path fill="#FFDF3D" d="M42.68 14.073v-7.53l9.513 9.38h-7.636a1.893 1.893 0 0 1-1.329-.54 1.843 1.843 0 0 1-.547-1.31Z"/><path fill="#004960" d="m59.415 18.387-3.766 12.316a.74.74 0 0 1-.365.432.756.756 0 0 1-.567.053l-2.666-.792 4.193-13.72 2.666.792c.19.057.35.185.444.357a.734.734 0 0 1 .061.562Z"/><path fill="#00242F" d="m59.234 35.272-5.825 19.041c-1.656-.497-4.995-1.48-6.665-1.978l5.811-19.029 6.679 1.966Z"/><path fill="#FFC24C" d="m53.422 54.313-5.487 6.075-1.178-8.053c1.657.485 4.996 1.48 6.665 1.978Z"/><path fill="#FFDF3D" d="m50.096 53.318-2.161 7.058-1.178-8.054 3.339.996Z"/><path fill="#004960" d="m55.907 34.289-5.811 19.029-3.34-.996 5.812-19.029 3.34.996Z"/></g><defs><clipPath id="a"><path fill="#fff" d="M0 0h66v64H0z"/></clipPath></defs></svg>