<svg xmlns="http://www.w3.org/2000/svg" width="64" height="64" fill="none"><g clip-path="url(#a)"><path fill="#FF4FB8" d="M9.5 52.556a30.5 30.5 0 0 1-6.75-19.181C2.75 16.461 16.461 2.75 33.375 2.75S64 16.461 64 33.375a30.5 30.5 0 0 1-6.75 19.181c-.265.33-47.485.33-47.75 0Z"/><path fill="#FF73C6" d="M60.787 30.358c0 13.807-11.192 25-25 25-13.807 0-25-11.193-25-25 0-13.808 11.194-25 25-25s25 11.193 25 25Z"/><path fill="#FFF5F5" d="M16.79 7.625H43.5l1.875 6.367 6.222 4.94 5.653 2.443v31.181a30.804 30.804 0 0 1-4.742 4.733c-.406.325-.827-2.235-1.25-1.931a30.639 30.639 0 0 1-35.017.535c-.424-.287-.833 2.29-1.241 1.984a31.545 31.545 0 0 1-1.798-1.46V10.333a30.689 30.689 0 0 1 3.588-2.708Z"/><path fill="#D9E7EC" d="M13.375 56.569A30.784 30.784 0 0 1 9.5 52.556V7.625h3.875v48.944ZM57.25 21.375H43.5V7.625l2.145 2.145L57.25 21.375Z"/><path fill="#B6C4CF" d="M40.179 16.25a1.25 1.25 0 0 1-1.25 1.25H20a1.25 1.25 0 0 1 0-2.5h18.929a1.25 1.25 0 0 1 1.25 1.25ZM33.75 20H20a1.25 1.25 0 0 0 0 2.5h13.75a1.25 1.25 0 0 0 0-2.5Zm6.429 6.25a1.25 1.25 0 0 1-1.25 1.25H20a1.25 1.25 0 0 1 0-2.5h18.929a1.25 1.25 0 0 1 1.25 1.25Z"/><path fill="#D9E7EC" d="M52.5 34.875v22.42a30.632 30.632 0 0 1-37.5.58v-23a.624.624 0 0 1 .625-.625h36.25a.624.624 0 0 1 .625.625Z"/><path fill="#2740B1" d="M40.566 45.179V38.25a.938.938 0 0 1 .938-.938h2.921a.937.937 0 1 1 0 1.876h-1.983v1.587h1.768a.937.937 0 1 1 0 1.875h-1.769v1.591h1.984a.937.937 0 1 1 0 1.875H41.5a.938.938 0 0 1-.934-.937Zm-4.18.937c1.5 0 2.77-.962 3.005-2.29.18-1-.272-2.306-2.073-2.971a36.718 36.718 0 0 1-1.894-.764.43.43 0 0 1-.142-.392c.016-.113.098-.385.512-.51.951-.286 1.841.412 1.867.434a.937.937 0 1 0 1.202-1.44c-.066-.057-1.666-1.376-3.61-.79-.989.3-1.689 1.08-1.828 2.04a2.29 2.29 0 0 0 1.02 2.262c.04.026.082.05.125.071.041.018 1 .448 2.094.849.227.084.964.395.875.883-.066.364-.517.743-1.161.743a2.368 2.368 0 0 1-1.743-.73.936.936 0 0 0-1.579.206.938.938 0 0 0 .194 1.054 4.216 4.216 0 0 0 3.133 1.345h.002Zm-15.357 0a3.699 3.699 0 0 0 2.922-1.322.938.938 0 1 0-1.436-1.205c-.058.07-.12.135-.189.195-.359.31-.822.474-1.297.457a2.563 2.563 0 0 1-2.45-3.31 2.56 2.56 0 0 1 3.881-1.375.938.938 0 0 0 1.05-1.553 4.436 4.436 0 1 0-2.481 8.113Zm7.316 2.159H24.48a.938.938 0 0 0 0 1.875h.988v6.06a.937.937 0 1 0 1.875 0v-6.06h1a.937.937 0 1 0 0-1.875h.002Zm-7.444 3.611a36.377 36.377 0 0 1-1.893-.765.425.425 0 0 1-.143-.392c.017-.111.099-.384.513-.509.951-.286 1.838.41 1.867.434a.938.938 0 0 0 1.201-1.44c-.066-.056-1.665-1.375-3.608-.789-.99.297-1.69 1.079-1.829 2.038a2.29 2.29 0 0 0 1.02 2.263c.04.026.082.05.125.072.041.017 1 .447 2.094.848.227.084.963.395.875.883-.067.365-.518.743-1.162.743a2.374 2.374 0 0 1-1.742-.73.941.941 0 0 0-1.325-.065.938.938 0 0 0-.065 1.326 4.22 4.22 0 0 0 3.133 1.345c1.5 0 2.77-.964 3.006-2.29.178-1-.273-2.307-2.074-2.972h.008Zm23.563.929c0 2.465-1.517 4.28-3.608 4.316-.548.01-1.92.015-1.978.017a.937.937 0 0 1-.935-.876.988.988 0 0 1-.017-.172v-6.674a.939.939 0 0 1 .938-.939h1.924c2.2 0 3.679 1.74 3.679 4.333l-.003-.005Zm-1.875 0c0-.578-.125-2.457-1.805-2.457H39.8v2.45c0 .56 0 1.662.007 2.46.374 0 .78-.007 1.014-.01 1.222-.022 1.768-1.243 1.768-2.443Zm7.892-4.375a.938.938 0 0 0-1.297.274l-1.434 2.205-1.447-2.219a.938.938 0 0 0-1.57 1.025l2.082 3.189-.008 3.294a.939.939 0 0 0 .934.94.938.938 0 0 0 .938-.937l.009-3.296 2.062-3.172a.937.937 0 0 0-.273-1.298l.005-.005Zm-19.975-2.935-.418-1.113H27.16l-.424 1.115a.939.939 0 0 1-1.828-.299c.001-.127.028-.252.078-.368l2.625-6.899a1.091 1.091 0 0 1 1.632-.518c.18.121.321.293.404.494l.01.027 2.603 6.898a.937.937 0 0 1-1.75.663h-.004Zm-1.125-2.988-.75-1.985-.75 1.986h1.5Zm6.556 5.75a.937.937 0 0 0-.938.938v4.81c0 .316-.091.726-.803 1.085a1.596 1.596 0 0 1-.73.164 1.412 1.412 0 0 1-.786-.222c-.552-.352-.665-.663-.665-1.022v-4.808a.937.937 0 1 0-1.875 0v4.816c0 1.078.515 1.953 1.53 2.603.536.342 1.159.521 1.794.517a3.476 3.476 0 0 0 1.574-.366c1.515-.763 1.834-1.922 1.834-2.76v-4.81a.938.938 0 0 0-.938-.937l.003-.008Z"/><path fill="#314DCA" d="M29.283 49.212a.937.937 0 0 1-.938.938h-1v3.267a.937.937 0 1 1-1.875 0V50.15h-.987a.938.938 0 0 1 0-1.875h3.864a.94.94 0 0 1 .938.938h-.002Zm-5.52-9.908a.937.937 0 0 0-.25-1.302 4.434 4.434 0 0 0-6.916 3.678.937.937 0 1 0 1.875 0 2.56 2.56 0 0 1 3.99-2.125.939.939 0 0 0 1.3-.251ZM41.5 43.568a.937.937 0 0 0 .938-.918h1.769a.938.938 0 0 0 0-1.875h-1.765v-1.593h1.983a.937.937 0 1 0 0-1.875H41.5a.938.938 0 0 0-.937.938v4.38a.937.937 0 0 0 .937.938v.005Zm-19.053 5.646c-.067-.056-1.665-1.375-3.61-.789-.99.297-1.69 1.079-1.828 2.038a2.29 2.29 0 0 0 1.02 2.263c.04.026.082.05.125.07.041.019 1 .449 2.094.85a.939.939 0 0 0 .649-1.76 36.377 36.377 0 0 1-1.894-.765.426.426 0 0 1-.143-.391c.017-.112.1-.385.513-.51.951-.286 1.839.41 1.867.434a.938.938 0 0 0 1.202-1.44h.005Zm8.135-6.16a.94.94 0 0 0 .546-1.209l-1.47-3.896-.01-.026a1.092 1.092 0 0 0-2.023.002l-.007.021-1.523 4a.939.939 0 0 0 1.408 1.106.938.938 0 0 0 .344-.438l.778-2.076.75 1.968a.94.94 0 0 0 1.208.548h-.001Zm.492 5.221a.937.937 0 0 0-.937.938v4.21a.937.937 0 1 0 1.875 0v-4.21a.938.938 0 0 0-.938-.938Zm19.408.17a.938.938 0 0 0-1.298.274l-1.434 2.2-1.447-2.219a.938.938 0 0 0-1.57 1.025l2.079 3.184v.375a.936.936 0 0 0 .925.95h.012a.937.937 0 0 0 .938-.925v-.389l2.063-3.179a.937.937 0 0 0-.273-1.296h.005Zm-9.698.038h-1.922a.936.936 0 0 0-.938.938v3.886a.937.937 0 1 0 1.875 0v-2.95h.984c1.674 0 1.805 1.876 1.805 2.457a.938.938 0 0 0 1.875 0c0-2.592-1.479-4.331-3.68-4.331h.001Zm-4.849-.208a.938.938 0 0 0-.937.938v4.204a.937.937 0 1 0 1.875 0v-4.205a.937.937 0 0 0-.938-.937Zm1.383-7.42a36.718 36.718 0 0 1-1.894-.764.43.43 0 0 1-.142-.392c.016-.113.098-.385.512-.51.951-.286 1.84.412 1.868.434a.937.937 0 0 0 1.2-1.44c-.065-.057-1.665-1.374-3.61-.79-.988.3-1.688 1.08-1.827 2.04a2.29 2.29 0 0 0 1.02 2.262c.04.027.082.05.125.071.042.018 1 .448 2.094.849a.946.946 0 0 0 .927-.16.938.938 0 0 0-.278-1.6h.005Z"/><path fill="#4F66D1" d="M32.5 16.25a16.178 16.178 0 0 1-2.375 8.473c-.222.36-.524.662-.884.883a16.18 16.18 0 0 1-8.472 2.375c-8.945 0-16.25-7.305-16.25-16.25a16.176 16.176 0 0 1 2.375-8.468c.22-.363.525-.667.887-.888A16.176 16.176 0 0 1 16.25 0C25.195 0 32.5 7.305 32.5 16.25Z"/><path fill="#314DCA" d="M30.271 24.468a16.251 16.251 0 1 1-22.24-22.24 16.25 16.25 0 0 0 22.24 22.24Z"/><path fill="#fff" d="M24.979 7.521a7.399 7.399 0 0 0-11.113 9.721L9.61 21.5a.937.937 0 1 0 1.326 1.325l4.25-4.25A7.397 7.397 0 0 0 24.98 7.52l-.001.001Zm-1.326 9.136a5.522 5.522 0 1 1-7.81-7.808 5.522 5.522 0 0 1 7.81 7.808Z"/><path fill="#FFC143" d="m13.592 21.525-3.657 3.658a1.562 1.562 0 0 1-2.21 0l-.441-.442a1.56 1.56 0 0 1 0-2.21l3.657-3.656a1.562 1.562 0 0 1 2.21 0l.441.441a1.564 1.564 0 0 1 0 2.21v-.001Z"/></g><defs><clipPath id="a"><path fill="#fff" d="M0 0h64v64H0z"/></clipPath></defs></svg>