<svg xmlns="http://www.w3.org/2000/svg" width="68" height="64" fill="none"><g clip-path="url(#a)"><path fill="#474747" d="M0 55.497a8.1 8.1 0 0 0 .684 3.254 8.487 8.487 0 0 0 1.95 2.76 9.045 9.045 0 0 0 2.917 1.842A9.444 9.444 0 0 0 8.993 64h50.012c1.181 0 2.35-.22 3.442-.647a9.047 9.047 0 0 0 2.918-1.843 8.487 8.487 0 0 0 1.95-2.759 8.1 8.1 0 0 0 .684-3.254H0Z"/><path fill="#505FE1" d="M0 55.497c0 1.997.744 3.93 2.1 5.46 1.357 1.53 3.24 2.56 5.32 2.908-.011-.01-.023-.03-.034-.041-1.732-2.116-.021-5.205 2.808-5.205h57.171c.42-.99.635-2.046.635-3.112H-.004l.004-.01Z"/><path fill="#fff" d="M37.432 60.785h-6.866a1.153 1.153 0 0 1-.432-.068 1.107 1.107 0 0 1-.369-.222 1.037 1.037 0 0 1-.248-.34.989.989 0 0 1 0-.812c.058-.128.142-.244.248-.34.106-.098.232-.173.37-.223.137-.05.284-.073.431-.068h6.866c.147-.005.294.018.431.068.138.05.264.125.37.222.106.097.19.213.248.341a.989.989 0 0 1 0 .811 1.037 1.037 0 0 1-.248.341 1.106 1.106 0 0 1-.37.222c-.137.05-.284.073-.431.068Z"/><path fill="#ECECEC" d="M59.148 16.238H8.86a4.514 4.514 0 0 0-3.099 1.214 4.032 4.032 0 0 0-1.283 2.93v35.105h59.056v-35.1a3.95 3.95 0 0 0-.333-1.588 4.136 4.136 0 0 0-.95-1.347 4.406 4.406 0 0 0-1.425-.9 4.605 4.605 0 0 0-1.68-.314Z"/><path fill="#5F6FE7" d="M8.861 20.387h50.287v30.952H8.86V20.387Z"/><path fill="#505FE1" d="M55.858 20.387c0 15.372-13.184 27.842-29.448 27.842H8.86v3.11h50.287V20.387h-3.29Z"/><path fill="#474747" d="M50.572 0H17.426a2.266 2.266 0 0 0-1.549.61c-.41.388-.642.915-.644 1.465v6.148h37.531V2.075A2.025 2.025 0 0 0 52.121.61 2.266 2.266 0 0 0 50.57 0Z"/><path fill="#fff" d="M19.095 5.185c.623 0 1.13-.478 1.13-1.068 0-.59-.507-1.068-1.13-1.068-.624 0-1.13.478-1.13 1.068 0 .59.506 1.068 1.13 1.068ZM22.956 5.185c.624 0 1.13-.478 1.13-1.068 0-.59-.506-1.068-1.13-1.068-.624 0-1.13.478-1.13 1.068 0 .59.506 1.068 1.13 1.068ZM26.816 5.185c.624 0 1.13-.478 1.13-1.068 0-.59-.506-1.068-1.13-1.068-.624 0-1.13.478-1.13 1.068 0 .59.506 1.068 1.13 1.068Z"/><path fill="#F0F0F0" d="M15.233 8.223v35.174c.002.549.234 1.075.645 1.464.41.388.967.607 1.548.609h33.146a2.266 2.266 0 0 0 1.548-.61c.41-.388.643-.914.644-1.463V8.223h-37.53Z"/><path fill="#C8CED6" d="M49.474 8.223v1.763c0 17.877-15.334 32.373-34.24 32.373v1.038c.001.549.233 1.075.644 1.464.41.388.967.607 1.548.609h33.146a2.266 2.266 0 0 0 1.548-.61c.41-.388.643-.914.644-1.463V8.223h-3.29Z"/><path fill="#E1533B" d="M45.636 12.37c-.727 0-1.424.274-1.939.76a2.523 2.523 0 0 0-.803 1.833v2.26h5.484v-2.26c0-.688-.29-1.347-.804-1.833a2.825 2.825 0 0 0-1.938-.76Z"/><path fill="#8C9FFA" d="M42.884 17.234h5.483V36.26h-5.483V17.234Z"/><path fill="#6E7FED" d="M46.338 17.234v13.83c0 .866-.364 1.697-1.012 2.31a3.558 3.558 0 0 1-2.442.956v1.929h5.483V17.234h-2.03Z"/><path fill="#F8CE01" d="M42.884 36.252h5.494l-2.742 5.07-2.752-5.07Z"/><path fill="#44394A" d="M47.006 38.792h-2.741l1.371 2.53 1.37-2.53Z"/><path fill="#F4B601" d="M32.453 12.37H20.718c-.29.002-.57.111-.775.306a1.012 1.012 0 0 0-.322.732v11.095c0 .274.117.538.322.732.206.195.484.304.775.305h11.735c.29 0 .57-.11.775-.305.205-.194.321-.457.322-.732V13.408c0-.275-.117-.538-.322-.732a1.133 1.133 0 0 0-.775-.305Z"/><path fill="#F09D00" d="M32.452 12.37h-.8c0 1.496-.311 2.977-.916 4.358a11.366 11.366 0 0 1-2.61 3.694 12.112 12.112 0 0 1-3.908 2.468 12.647 12.647 0 0 1-4.609.867v.758c.001.274.117.538.322.732.206.195.485.304.775.305h11.735c.29 0 .57-.11.775-.305.206-.194.322-.457.322-.732V13.42a.978.978 0 0 0-.076-.399 1.023 1.023 0 0 0-.234-.34 1.091 1.091 0 0 0-.355-.227 1.141 1.141 0 0 0-.42-.08v-.003Z"/><path fill="#AAB2BD" d="M38.496 30.735H19.621c-.291 0-.57-.109-.776-.303a1.01 1.01 0 0 1-.322-.734c0-.275.116-.539.322-.733a1.13 1.13 0 0 1 .776-.304h18.875c.291 0 .57.11.776.304.206.194.321.458.321.733 0 .275-.115.54-.32.734a1.13 1.13 0 0 1-.777.303ZM38.497 34.602H19.62a1.155 1.155 0 0 1-.432-.067 1.106 1.106 0 0 1-.37-.223 1.037 1.037 0 0 1-.247-.34.99.99 0 0 1 0-.812c.057-.128.142-.244.248-.34.106-.097.231-.173.37-.223.137-.05.284-.073.43-.068h18.877c.284.01.553.123.75.317.197.193.307.451.307.72 0 .269-.11.527-.307.72a1.126 1.126 0 0 1-.75.316ZM30.26 38.48H19.62a1.155 1.155 0 0 1-.43-.068 1.106 1.106 0 0 1-.37-.222 1.037 1.037 0 0 1-.248-.34.99.99 0 0 1 0-.812c.057-.128.142-.244.248-.34.106-.098.231-.173.37-.223.137-.05.284-.073.43-.068h10.64c.284.01.553.123.75.317.197.193.307.451.307.72 0 .268-.11.526-.307.72a1.127 1.127 0 0 1-.75.316ZM30.26 42.36H19.62c-.29 0-.57-.11-.775-.305a1.01 1.01 0 0 1-.322-.733c0-.275.116-.539.322-.733a1.13 1.13 0 0 1 .776-.304H30.26c.29 0 .57.109.775.304.206.194.322.458.322.733 0 .275-.116.539-.322.733a1.13 1.13 0 0 1-.776.304Z"/><path fill="#fff" d="m30.94 22.16-3.346-7.228a1.062 1.062 0 0 0-.407-.452 1.151 1.151 0 0 0-1.204 0c-.18.11-.32.267-.407.452l-3.346 7.227a.99.99 0 0 0-.02.794c.106.257.314.464.58.575.267.112.569.118.84.019a1.11 1.11 0 0 0 .362-.217 1.04 1.04 0 0 0 .246-.331l.625-1.348h3.444L28.932 23c.084.186.225.345.405.456.18.111.39.169.604.167.15-.003.3-.03.439-.083.263-.118.468-.327.572-.584.104-.257.1-.542-.012-.796Zm-5.111-2.591.756-1.639.756 1.639H25.83Z"/></g><defs><clipPath id="a"><path fill="#fff" d="M0 0h68v64H0z"/></clipPath></defs></svg>