<svg xmlns="http://www.w3.org/2000/svg" width="57" height="64" fill="none"><g fill-rule="evenodd" clip-path="url(#a)" clip-rule="evenodd"><path fill="#003748" d="m35.272 56.124-18.222.232L13 63.352a.43.43 0 0 0 .368.648h25.718a.424.424 0 0 0 .428-.432.432.432 0 0 0-.06-.216l-4.183-7.228Z"/><path fill="#00242F" d="m35.27 56.124-2.108.028 4.17 7.2a.432.432 0 0 1-.153.59.424.424 0 0 1-.215.058h2.124a.423.423 0 0 0 .372-.216.43.43 0 0 0-.005-.432l-4.184-7.228Z"/><path fill="#E6F8FF" d="M49.717 18.867c.725.002 1.42.293 1.934.81.513.516.802 1.216.805 1.947v32.13a2.776 2.776 0 0 1-.805 1.947 2.738 2.738 0 0 1-1.934.81H2.737a2.736 2.736 0 0 1-1.933-.81A2.774 2.774 0 0 1 0 53.754v-32.13c.002-.73.291-1.43.804-1.947a2.736 2.736 0 0 1 1.934-.81h46.979Z"/><path fill="#D0F1FF" d="M49.717 18.867c.725.002 1.42.293 1.934.81.513.516.802 1.216.805 1.947v32.13a2.776 2.776 0 0 1-.805 1.947 2.738 2.738 0 0 1-1.934.81H46.53a2.738 2.738 0 0 0 1.934-.81 2.776 2.776 0 0 0 .805-1.947v-32.13a2.776 2.776 0 0 0-.805-1.947 2.737 2.737 0 0 0-1.934-.81h3.186Z"/><path fill="#004960" d="M52.456 52.96H0v1.86c.002.73.291 1.43.804 1.947a2.737 2.737 0 0 0 1.934.811h46.979a2.737 2.737 0 0 0 1.934-.81 2.775 2.775 0 0 0 .805-1.948v-1.86Z"/><path fill="#003748" d="M52.456 52.96H49.27v1.86a2.775 2.775 0 0 1-.804 1.948 2.737 2.737 0 0 1-1.935.81h3.186a2.737 2.737 0 0 0 1.934-.81 2.776 2.776 0 0 0 .805-1.948v-1.86Z"/><path fill="#EFF4F7" d="M43.24 49.692H10.948a1.758 1.758 0 0 1-1.244-.52 1.782 1.782 0 0 1-.516-1.254V9.93a1.725 1.725 0 0 1 .514-1.254L17.808.52A1.703 1.703 0 0 1 19.053 0H43.24c.467.001.915.189 1.245.52.33.333.516.784.517 1.254v46.143c-.001.47-.187.921-.517 1.253a1.76 1.76 0 0 1-1.245.521Z"/><path fill="#E2E3E3" d="M17.797.518 9.698 8.68c-.152.15-.277.325-.368.518h7.388c.421 0 .825-.17 1.123-.47.298-.3.466-.707.467-1.13V.153c-.19.09-.364.213-.511.364ZM43.24 49.692H10.947a1.758 1.758 0 0 1-1.243-.52 1.783 1.783 0 0 1-.517-1.254v-.365H41.12c.467 0 .914-.188 1.244-.52.33-.332.516-.782.517-1.252V0h.363c.467.001.914.188 1.245.52.33.333.516.784.517 1.254v46.144c-.002.47-.187.921-.517 1.253-.33.333-.778.52-1.245.521h-.004Z"/><path fill="#8D9CA8" d="M14.38 31.903c-.273 0-.535-.11-.728-.304a1.04 1.04 0 0 1 0-1.465c.193-.195.455-.304.728-.304h25.424c.273 0 .534.11.727.304a1.04 1.04 0 0 1 0 1.465 1.026 1.026 0 0 1-.727.304H14.38Zm9.892-24.08c-.273 0-.534-.11-.728-.304a1.04 1.04 0 0 1 0-1.466c.194-.194.455-.303.728-.303h15.532c.273 0 .534.109.727.303a1.04 1.04 0 0 1 0 1.466 1.026 1.026 0 0 1-.727.304H24.272Zm-9.892 6.02c-.273 0-.535-.11-.728-.304a1.04 1.04 0 0 1 0-1.465c.193-.195.455-.304.728-.304h25.424c.273 0 .534.11.727.304a1.04 1.04 0 0 1 0 1.465 1.026 1.026 0 0 1-.727.304H14.38Zm0 6.02c-.273 0-.535-.109-.728-.303a1.04 1.04 0 0 1 0-1.466c.193-.194.455-.304.728-.304h25.424c.273 0 .534.11.727.304a1.04 1.04 0 0 1 0 1.466 1.026 1.026 0 0 1-.727.303H14.38Zm0 6.02c-.273 0-.535-.11-.728-.304a1.04 1.04 0 0 1 0-1.466c.193-.194.455-.303.728-.303h25.424c.273 0 .534.109.727.303a1.04 1.04 0 0 1 0 1.466 1.026 1.026 0 0 1-.727.303H14.38Zm0 18.06c-.273 0-.535-.11-.728-.304a1.04 1.04 0 0 1 0-1.466c.193-.194.455-.303.728-.303h25.424c.273 0 .534.109.727.303a1.04 1.04 0 0 1 0 1.466 1.026 1.026 0 0 1-.727.303H14.38Zm0-6.021c-.273 0-.535-.11-.728-.304a1.04 1.04 0 0 1 0-1.465c.193-.195.455-.304.728-.304h25.424c.273 0 .534.11.727.304a1.04 1.04 0 0 1 0 1.465 1.026 1.026 0 0 1-.727.304H14.38Z"/><path fill="#72D561" d="m38.495 37.799 13.4-23.37a1.288 1.288 0 0 1 1.768-.477l2.691 1.565a1.314 1.314 0 0 1 .473 1.78L43.425 40.666l-4.177 2.928a.752.752 0 0 1-1.1-.272.765.765 0 0 1-.084-.416l.432-5.107Z"/><path fill="#3CBE52" d="m54.86 14.649 1.494.868c.297.173.513.458.602.791.088.334.042.69-.129.989L43.424 40.666l-4.178 2.928a.752.752 0 0 1-1.098-.273.764.764 0 0 1-.084-.415l.035-.424 3.833-2.684 13.402-23.37a1.312 1.312 0 0 0-.474-1.78Z"/><path fill="#3CBE52" d="m56.828 17.297-1.465 2.553-4.932-2.868 1.464-2.553a1.289 1.289 0 0 1 1.768-.477l2.691 1.565a1.314 1.314 0 0 1 .474 1.78Z"/><path fill="#30AA44" d="m56.828 17.297-1.464 2.553-1.494-.868 1.464-2.553a1.312 1.312 0 0 0-.473-1.78l1.494.868a1.314 1.314 0 0 1 .473 1.78Z"/><path fill="#B4D2D7" d="m38.496 37.801 4.929 2.866-4.177 2.927a.752.752 0 0 1-1.098-.273.766.766 0 0 1-.084-.415l.43-5.105Z"/><path fill="#9BB9C3" d="m41.933 39.8 1.493.867-4.177 2.927a.751.751 0 0 1-1.098-.273.765.765 0 0 1-.084-.415l.036-.424 3.83-2.683Z"/></g><defs><clipPath id="a"><path fill="#fff" d="M0 0h57v64H0z"/></clipPath></defs></svg>