<svg xmlns="http://www.w3.org/2000/svg" width="64" height="64" fill="none"><g clip-path="url(#a)"><mask id="b" width="65" height="64" x="0" y="0" maskUnits="userSpaceOnUse" style="mask-type:luminance"><path fill="#fff" d="M64.236 0H.127v64h64.109V0Z"/></mask><g mask="url(#b)"><path fill="#A6A6FF" d="M14.393 55.584H8.278A2.281 2.281 0 0 1 6 53.31V2.274A2.272 2.272 0 0 1 8.278 0h39.154a2.28 2.28 0 0 1 2.278 2.274v6l-35.317 47.31Z"/><path fill="#6D74F2" d="M47.432 0H27.854v37.55L49.71 8.273v-6a2.27 2.27 0 0 0-1.407-2.1 2.281 2.281 0 0 0-.871-.174"/><path fill="#EEFFF6" d="M45.382 63.999H16.665a2.28 2.28 0 0 1-2.278-2.274V10.557a2.272 2.272 0 0 1 2.278-2.274h39.42a2.281 2.281 0 0 1 2.278 2.274v41a2.107 2.107 0 0 1-.657 1.526L46.839 63.418a2.115 2.115 0 0 1-1.457.581Z"/><path fill="#DDFFED" d="M56.084 8.283H36.418v55.716h8.965c.542 0 1.063-.208 1.456-.581l10.87-10.335a2.11 2.11 0 0 0 .656-1.526v-41a2.27 2.27 0 0 0-1.408-2.102 2.282 2.282 0 0 0-.873-.172Z"/><path fill="#004960" d="M48.506 52.46a2.282 2.282 0 0 0-2.28 2.275v9.086c.227-.098.434-.234.613-.403l10.869-10.335c.186-.18.338-.39.449-.624h-9.651ZM47.923 37.68H31.362a1.88 1.88 0 0 1-1.879-1.874 1.873 1.873 0 0 1 1.879-1.875h16.561a1.88 1.88 0 0 1 1.878 1.875 1.873 1.873 0 0 1-1.878 1.875Z"/><path fill="#6BFFB1" d="M26.213 35.806a1.873 1.873 0 0 1-1.878 1.875 1.88 1.88 0 0 1-1.878-1.875 1.873 1.873 0 0 1 1.878-1.875 1.88 1.88 0 0 1 1.878 1.875Z"/><path fill="#004960" d="M47.923 46.118H31.362a1.88 1.88 0 0 1-1.879-1.875 1.874 1.874 0 0 1 1.879-1.875h16.561a1.88 1.88 0 0 1 1.878 1.875 1.873 1.873 0 0 1-1.878 1.875Z"/><path fill="#6BFFB1" d="M26.213 44.243a1.874 1.874 0 0 1-1.878 1.875 1.88 1.88 0 0 1-1.878-1.875 1.874 1.874 0 0 1 1.878-1.875 1.88 1.88 0 0 1 1.878 1.875Z"/><path fill="#004960" d="M37.691 54.556h-6.33a1.88 1.88 0 0 1-1.878-1.875 1.874 1.874 0 0 1 1.879-1.875h6.329a1.88 1.88 0 0 1 1.878 1.875 1.874 1.874 0 0 1-1.878 1.875Z"/><path fill="#6BFFB1" d="M26.213 52.68a1.874 1.874 0 0 1-1.878 1.876 1.88 1.88 0 0 1-1.878-1.875 1.874 1.874 0 0 1 1.878-1.875 1.88 1.88 0 0 1 1.878 1.875Z"/><path fill="#004960" d="M48.48 28.043H24.356a1.52 1.52 0 0 1-1.52-1.517v-7.764a1.516 1.516 0 0 1 1.52-1.517H48.48a1.521 1.521 0 0 1 1.403.937c.076.184.115.381.115.58v7.76a1.514 1.514 0 0 1-1.518 1.521Z"/><path fill="#0D3C4A" d="M36.418 28.043h12.06a1.52 1.52 0 0 0 1.52-1.517v-7.764a1.51 1.51 0 0 0-.938-1.402 1.52 1.52 0 0 0-.581-.115H36.418v10.798ZM36.418 37.68h11.506a1.88 1.88 0 0 0 1.878-1.874 1.873 1.873 0 0 0-1.878-1.875H36.418v3.75ZM37.691 50.806h-1.273v3.75h1.273a1.88 1.88 0 0 0 1.879-1.875 1.873 1.873 0 0 0-1.879-1.875ZM36.418 46.118h11.506a1.88 1.88 0 0 0 1.878-1.875 1.874 1.874 0 0 0-1.878-1.875H36.418v3.75Z"/></g></g><defs><clipPath id="a"><path fill="#fff" d="M6 0h52.364v64H6z"/></clipPath></defs></svg>