<svg xmlns="http://www.w3.org/2000/svg" width="64" height="64" fill="none"><g clip-path="url(#a)"><path fill="#DEF5FF" d="M18.381 14.545c-5.167 13.018-5.516 27.726.837 39.758h37.025A7.756 7.756 0 0 0 64 46.544v-32c-.992-2.786-44.294-2.844-45.619 0Z"/><path fill="#C4E8FE" d="M18.38 14.545c-6.318-2.641-12.47-2.99-18.374 0v32a7.758 7.758 0 0 0 7.757 7.759h11.46c-2.652-12.602-3.007-27.199-.836-39.759h-.006Z"/><path fill="#565F85" d="M56.243 0H22.506c-4.603 4.089-6.46 9.023-4.125 14.545h45.62V7.758A7.757 7.757 0 0 0 56.242 0Z"/><path fill="#3D3E65" d="M7.758 0A7.756 7.756 0 0 0 0 7.758v6.787h18.381C19.337 9.023 20.75 4.089 22.506 0H7.758Z"/><path fill="#7ADDFF" d="M40.76 59.291V24.103a4.706 4.706 0 0 0-4.71-4.71H17.675c-5.046 14.073-4.41 31 4.178 44.607H36.05a4.708 4.708 0 0 0 4.71-4.709Z"/><path fill="#21CBFC" d="M17.678 19.394H12.5a4.707 4.707 0 0 0-4.709 4.709V59.29A4.708 4.708 0 0 0 12.5 64h9.358c-4.65-13.584-5.845-30.519-4.177-44.606h-.003Z"/><path fill="#FAE27A" d="M35.91 27.151a1.94 1.94 0 0 0-1.94-1.939H18.909c-2.102 0-2.618.875-2.618 1.94 0 1.063 0 1.94 2.617 1.94H33.97a1.942 1.942 0 0 0 1.94-1.94Z"/><path fill="#FFD05C" d="M16.97 27.151a1.94 1.94 0 0 1 1.938-1.939h-4.332a1.94 1.94 0 0 0 0 3.875h4.332a1.939 1.939 0 0 1-1.938-1.936Z"/><path fill="#55E579" d="M7.271 9.696a2.424 2.424 0 1 0 0-4.847 2.424 2.424 0 0 0 0 4.847Z"/><path fill="#FAE27A" d="M16.973 9.702a2.424 2.424 0 1 0 0-4.847 2.424 2.424 0 0 0 0 4.847Z"/><path fill="#FF8B8B" d="M27.637 9.696a2.424 2.424 0 1 0 0-4.847 2.424 2.424 0 0 0 0 4.847Z"/><path fill="#DEF5FF" d="M59.15 7.272a2.424 2.424 0 0 0-2.423-2.423H42.192c-2.806 0-2.954 1.085-2.954 2.423 0 1.34.066 2.425 2.954 2.425h14.535a2.424 2.424 0 0 0 2.424-2.424Z"/><path fill="#C4E8FE" d="M39.767 7.273a2.425 2.425 0 0 1 2.425-2.424h-4.858a2.425 2.425 0 1 0 0 4.849h4.858a2.424 2.424 0 0 1-2.425-2.425Z"/><path fill="#21CBFC" d="M35.91 35.875a.969.969 0 1 0 0-1.94H16.983c-.75.643-.73 1.29.05 1.94H35.91Z"/><path fill="#21B8FC" d="M12.638 34.909a.968.968 0 0 0 .97.97h3.426a112.66 112.66 0 0 1-.051-1.94h-3.375a.969.969 0 0 0-.97.97Z"/><path fill="#21CBFC" d="M37.688 39.757H17.234c-1.302.643-1.261 1.29.149 1.94h20.305a.97.97 0 1 0 0-1.94Z"/><path fill="#21B8FC" d="M13.607 39.757a.97.97 0 0 0 0 1.94h3.776a110.59 110.59 0 0 1-.149-1.94h-3.627Z"/><path fill="#21CBFC" d="M33.094 47.515a.971.971 0 1 0 0-1.939H17.783c-.806.698-.657 1.342.25 1.94h15.061Z"/><path fill="#21B8FC" d="M12.638 46.545a.967.967 0 0 0 .97.97h4.427c-.089-.64-.172-1.287-.25-1.939H13.61a.968.968 0 0 0-.97.969h-.002Z"/><path fill="#21CBFC" d="m32.017 53.334 1.082-1.698-.833-.242H18.653c-1.266.824-.842 1.434.366 1.94h12.998Z"/><path fill="#21B8FC" d="M12.638 52.364a.97.97 0 0 0 .97.97h5.412c-.128-.64-.25-1.287-.367-1.94h-5.047a.968.968 0 0 0-.968.97Z"/><path fill="#21CBFC" d="M25.25 59.151a.97.97 0 0 0 0-1.939h-5.375c-1.056.655-.875 1.302.5 1.94h4.875Z"/><path fill="#21B8FC" d="M12.638 58.181a.968.968 0 0 0 .97.97h6.767a95.089 95.089 0 0 1-.5-1.939h-6.267a.97.97 0 0 0-.97.97Z"/><path fill="#7ADDFF" d="m51.394 34.071 2.981-3.83L53 27.501l-2.46-.241c-1.988.951-2.475 1.864-2.975 3.829l1.014 2.206 2.815.776Z"/><path fill="#21CBFC" d="m48.25 25.483-2.975 3.828.65 1.866 1.637-.088 2.976-3.829-.444-1.785-1.844.008Z"/><path fill="#FF8B8B" d="M55.846 24.375c-2.056-1.279-3.542-1.922-4.949.661l-.365 2.224 3.843 2.981 1.19-1.53a3.876 3.876 0 0 0 .281-4.336Z"/><path fill="#FD5E5E" d="M55.846 24.375a3.874 3.874 0 0 0-6.412-.422l-1.184 1.53 2.288 1.777 1.19-1.533a3.876 3.876 0 0 1 4.124-1.352h-.006Z"/><path fill="#FAE27A" d="m47.557 31.089-6.673 6.601-5.225 8.711 3.841 2.983c.063-.083-.47.602 11.897-15.313l-3.84-2.982Z"/><path fill="#FFD05C" d="M45.27 29.311c-1.011 1.302-10.738 13.814-11.895 15.314l2.289 1.775L47.56 31.087l-2.291-1.776Z"/><path fill="#565F85" d="m39.493 49.384-7.307 3.906a.46.46 0 0 1-.665-.506l1.847-8.159c3.533-.46 5.607 1.083 6.125 4.759Z"/></g><defs><clipPath id="a"><path fill="#fff" d="M0 0h64v64H0z"/></clipPath></defs></svg>