<svg xmlns="http://www.w3.org/2000/svg" width="69" height="64" fill="none"><g clip-path="url(#a)"><path fill="#B4D2D7" d="M21.542 4.912h36.823a2.02 2.02 0 0 1 1.418.58c.377.372.588.876.588 1.402v51.599a1.963 1.963 0 0 1-.588 1.407 2.01 2.01 0 0 1-1.424.58H21.536a2.02 2.02 0 0 1-1.42-.58 1.971 1.971 0 0 1-.588-1.403V6.895a1.961 1.961 0 0 1 .59-1.404 2.01 2.01 0 0 1 1.424-.579Z"/><path fill="#A1C6CC" fill-rule="evenodd" d="M57.688 4.912h.672c.532.001 1.042.21 1.418.582.376.371.588.875.59 1.4V58.49a1.975 1.975 0 0 1-.592 1.398c-.376.37-.885.58-1.416.58H21.537a2.025 2.025 0 0 1-1.418-.582 1.975 1.975 0 0 1-.589-1.401v-.66h36.15a2.024 2.024 0 0 0 1.418-.581c.376-.371.588-.875.589-1.4V4.912h.001Z" clip-rule="evenodd"/><path fill="#EFF4F7" d="M16.57 0h36.822c.532 0 1.043.209 1.42.58.376.373.588.877.588 1.403v51.598a1.96 1.96 0 0 1-.59 1.404 2.009 2.009 0 0 1-1.424.578H16.564a2.021 2.021 0 0 1-1.42-.581 1.971 1.971 0 0 1-.588-1.403V1.983a1.963 1.963 0 0 1 .59-1.404A2.01 2.01 0 0 1 16.569 0Z"/><path fill="#DEE8EE" fill-rule="evenodd" d="M52.713 0h.673c.532.001 1.042.21 1.418.582.377.371.589.875.59 1.4v51.597c0 .527-.212 1.031-.588 1.403a2.025 2.025 0 0 1-1.42.584H16.563a2.025 2.025 0 0 1-1.417-.583 1.975 1.975 0 0 1-.59-1.4v-.666h36.15a2.023 2.023 0 0 0 1.419-.582c.376-.371.587-.875.588-1.4V0Z" clip-rule="evenodd"/><path fill="#465759" fill-rule="evenodd" d="M49.47 19.524c.277.01.54.126.733.323a1.053 1.053 0 0 1 0 1.472 1.08 1.08 0 0 1-.734.323h-9.612a1.08 1.08 0 0 1-.734-.323 1.053 1.053 0 0 1 0-1.472c.193-.197.456-.313.734-.323h9.612Zm-14.715 0a1.086 1.086 0 0 1 .76.311 1.062 1.062 0 0 1 .315.751 1.05 1.05 0 0 1-.316.751 1.076 1.076 0 0 1-.76.31H20.487a1.085 1.085 0 0 1-.784-.296 1.058 1.058 0 0 1-.328-.763 1.048 1.048 0 0 1 .328-.762 1.075 1.075 0 0 1 .784-.297l14.268-.005ZM49.47 48.317c.278.01.541.126.734.324a1.053 1.053 0 0 1 0 1.471 1.08 1.08 0 0 1-.734.323h-5.902a1.086 1.086 0 0 1-.784-.296 1.06 1.06 0 0 1-.328-.763 1.05 1.05 0 0 1 .328-.762 1.074 1.074 0 0 1 .784-.297h5.902Zm-10.343 0a1.085 1.085 0 0 1 .783.297 1.06 1.06 0 0 1 .328.762 1.048 1.048 0 0 1-.328.763 1.073 1.073 0 0 1-.783.296H34.03a1.079 1.079 0 0 1-.734-.323 1.053 1.053 0 0 1 0-1.471c.193-.198.456-.314.734-.324h5.096Zm-10.59 0c.278.01.542.126.734.324a1.053 1.053 0 0 1 0 1.471 1.079 1.079 0 0 1-.733.323h-8.05a1.085 1.085 0 0 1-.784-.296 1.059 1.059 0 0 1-.328-.763 1.048 1.048 0 0 1 .328-.762 1.073 1.073 0 0 1 .784-.297h8.05Zm20.933-7.19c.285 0 .557.111.758.31a1.052 1.052 0 0 1 0 1.496c-.201.199-.473.31-.758.31h-4.303c-.284 0-.556-.111-.757-.31a1.052 1.052 0 0 1 0-1.496c.2-.199.473-.31.757-.31h4.303Zm-8.88 0c.284 0 .557.111.758.31a1.052 1.052 0 0 1 0 1.496c-.201.199-.474.31-.758.31H27.103c-.285 0-.557-.111-.758-.31a1.052 1.052 0 0 1 0-1.496c.2-.199.473-.31.758-.31h13.486Zm-18.409 0c.285 0 .557.111.758.31a1.052 1.052 0 0 1 0 1.496c-.2.199-.473.31-.758.31h-1.693c-.284 0-.557-.111-.758-.31a1.052 1.052 0 0 1 0-1.496c.201-.199.474-.31.758-.31h1.693Zm27.29-7.206c.277.01.54.125.733.323a1.053 1.053 0 0 1 0 1.471 1.079 1.079 0 0 1-.734.324H38.424a1.086 1.086 0 0 1-.784-.297 1.058 1.058 0 0 1-.328-.762 1.047 1.047 0 0 1 .328-.763 1.074 1.074 0 0 1 .784-.296h11.045Zm-15.673 0c.278.01.54.125.734.323a1.053 1.053 0 0 1 0 1.471 1.079 1.079 0 0 1-.734.324h-13.31a1.085 1.085 0 0 1-.784-.297 1.06 1.06 0 0 1-.328-.762 1.047 1.047 0 0 1 .328-.763 1.075 1.075 0 0 1 .784-.296h13.31Zm15.672-7.2c.278.01.541.126.734.324a1.053 1.053 0 0 1 0 1.471 1.08 1.08 0 0 1-.734.324h-3.22a1.079 1.079 0 0 1-.734-.323 1.053 1.053 0 0 1 0-1.472c.193-.198.456-.314.734-.323h3.22Zm-7.748 0c.278.01.541.126.734.324a1.053 1.053 0 0 1 0 1.471 1.079 1.079 0 0 1-.734.324h-4.965a1.08 1.08 0 0 1-.733-.323 1.053 1.053 0 0 1 0-1.472c.193-.198.456-.314.733-.323h4.965Zm-9.71 0a1.086 1.086 0 0 1 .783.297 1.06 1.06 0 0 1 .328.763 1.05 1.05 0 0 1-.328.762 1.074 1.074 0 0 1-.783.297h-4.725a1.08 1.08 0 0 1-.734-.323 1.053 1.053 0 0 1 0-1.472c.193-.198.456-.314.734-.323h4.725Zm-9.043 0a1.085 1.085 0 0 1 .783.297 1.057 1.057 0 0 1 .328.763 1.048 1.048 0 0 1-.328.762 1.072 1.072 0 0 1-.783.297h-2.483a1.083 1.083 0 0 1-.783-.297 1.06 1.06 0 0 1-.328-.762 1.05 1.05 0 0 1 .328-.763 1.073 1.073 0 0 1 .783-.296h2.483ZM49.469 5.127c.278.01.541.126.734.323a1.053 1.053 0 0 1 0 1.472 1.08 1.08 0 0 1-.734.323H32.907a1.085 1.085 0 0 1-.783-.296 1.06 1.06 0 0 1-.328-.763 1.05 1.05 0 0 1 .328-.763 1.076 1.076 0 0 1 .783-.296H49.47Zm-22.795 0c.277.01.54.126.733.323a1.053 1.053 0 0 1 0 1.472 1.079 1.079 0 0 1-.733.323h-6.187a1.085 1.085 0 0 1-.784-.296 1.06 1.06 0 0 1-.328-.763 1.048 1.048 0 0 1 .328-.763 1.075 1.075 0 0 1 .784-.296h6.187Zm22.795 7.199c.278.01.541.126.734.323a1.053 1.053 0 0 1 0 1.472 1.079 1.079 0 0 1-.734.323h-6.504a1.086 1.086 0 0 1-.783-.296 1.06 1.06 0 0 1-.328-.763 1.05 1.05 0 0 1 .328-.763 1.074 1.074 0 0 1 .783-.296h6.504Zm-10.951 0a1.085 1.085 0 0 1 .783.296 1.059 1.059 0 0 1 .328.763 1.047 1.047 0 0 1-.328.763 1.073 1.073 0 0 1-.783.296h-10.66a1.086 1.086 0 0 1-.783-.296 1.06 1.06 0 0 1-.328-.763 1.05 1.05 0 0 1 .328-.763 1.074 1.074 0 0 1 .783-.296h10.66Zm-14.906 0c.278.01.54.126.734.323a1.053 1.053 0 0 1 0 1.472 1.079 1.079 0 0 1-.734.323h-3.125a1.085 1.085 0 0 1-.784-.296 1.058 1.058 0 0 1-.328-.763 1.048 1.048 0 0 1 .328-.763 1.073 1.073 0 0 1 .784-.296h3.125Z" clip-rule="evenodd"/><path fill="#FFDA2D" fill-rule="evenodd" d="m45.972 39.038 16.045-27.446c.206-.35.543-.606.94-.711a1.568 1.568 0 0 1 1.173.15l3.223 1.837c.355.204.614.538.72.93.107.392.052.81-.153 1.161L51.88 42.406l-5.004 3.438a.912.912 0 0 1-1.317-.32.883.883 0 0 1-.1-.488l.513-5.994v-.004Z" clip-rule="evenodd"/><path fill="#FFC700" fill-rule="evenodd" d="m65.744 11.95 1.612.918c.355.204.614.538.72.93.107.392.051.81-.153 1.161L51.879 42.406l-5.003 3.438a.91.91 0 0 1-1.317-.32.883.883 0 0 1-.1-.488l.024-.26 4.785-3.289 16.044-27.446c.204-.352.26-.769.153-1.16a1.538 1.538 0 0 0-.72-.93h-.001Z" clip-rule="evenodd"/><path fill="#DA8C36" fill-rule="evenodd" d="m51.876 42.407-5.904-3.366-.513 5.994a.884.884 0 0 0 .45.846.914.914 0 0 0 .966-.039l5.001-3.436Z" clip-rule="evenodd"/><path fill="#CD7D25" fill-rule="evenodd" d="m51.876 42.407-1.61-.918-4.783 3.287-.024.26a.885.885 0 0 0 .45.847.914.914 0 0 0 .966-.04l5.001-3.436Z" clip-rule="evenodd"/><path fill="#FDB800" fill-rule="evenodd" d="m60.268 14.59 5.907 3.369 1.753-2.997c.204-.352.26-.77.154-1.161a1.537 1.537 0 0 0-.721-.93l-3.231-1.84a1.568 1.568 0 0 0-1.176-.151 1.55 1.55 0 0 0-.94.712L60.26 14.59l.008.001Z" clip-rule="evenodd"/><path fill="#F4A40E" fill-rule="evenodd" d="m64.559 17.04 1.61.919 1.753-2.997c.205-.352.26-.77.154-1.161a1.536 1.536 0 0 0-.72-.93l-1.613-.918c.356.203.615.538.722.93.106.391.051.809-.154 1.16l-1.752 2.998v-.002Z" clip-rule="evenodd"/><path fill="#96A4AF" fill-rule="evenodd" d="m11.54 50.158-3.08-1.894 3.539-6.06 3.206 1.68-3.665 6.274Z" clip-rule="evenodd"/><path fill="#8696A3" fill-rule="evenodd" d="m11.54 50.158-3.08-1.894.018-.032 1.728 1.06 3.586-6.148 1.412.74-3.664 6.274Z" clip-rule="evenodd"/><path fill="#64B5F6" d="M20.396 46.4c8.385 0 15.183-6.715 15.183-14.997S28.78 16.407 20.396 16.407c-8.386 0-15.183 6.714-15.183 14.996S12.01 46.4 20.396 46.4Z"/><path fill="#42A5F5" fill-rule="evenodd" d="M29.427 19.332a15.06 15.06 0 0 1 4.14 4.596 14.825 14.825 0 0 1 1.308 11.974 14.951 14.951 0 0 1-3.053 5.363 15.17 15.17 0 0 1-4.976 3.701 15.352 15.352 0 0 1-12.19.31 15.199 15.199 0 0 1-5.162-3.444 15.325 15.325 0 0 0 10.662 2.856 15.248 15.248 0 0 0 9.8-5.036 14.888 14.888 0 0 0 3.752-10.262 14.907 14.907 0 0 0-4.281-10.058Z" clip-rule="evenodd"/><path fill="#E6F8FF" d="M28.719 39.618a11.516 11.516 0 0 0 0-16.428c-4.593-4.537-12.04-4.537-16.633 0a11.516 11.516 0 0 0 0 16.428c4.593 4.537 12.04 4.537 16.633 0Z"/><path fill="#D0F1FF" fill-rule="evenodd" d="M20.411 19.785A11.858 11.858 0 0 1 25.4 20.88a11.718 11.718 0 0 1 4.044 3.083 11.856 11.856 0 0 0-8.067-2.689 11.831 11.831 0 0 0-7.79 3.392 11.552 11.552 0 0 0-3.434 7.695c-.131 2.898.84 5.74 2.724 7.967a11.604 11.604 0 0 1-3.824-5.89 11.482 11.482 0 0 1 .295-6.992 11.637 11.637 0 0 1 4.307-5.556 11.864 11.864 0 0 1 6.757-2.105Z" clip-rule="evenodd"/><path fill="#DA8C36" fill-rule="evenodd" d="m8.221 46.496 5.048 2.878a.29.29 0 0 1 .108.395L5.982 62.42c-.21.36-.49.678-.824.932a3.223 3.223 0 0 1-2.374.631 3.233 3.233 0 0 1-1.187-.397 3.196 3.196 0 0 1-.942-.816 3.152 3.152 0 0 1-.633-2.346 3.14 3.14 0 0 1 .406-1.172l7.393-12.65A.29.29 0 0 1 8 46.467a.296.296 0 0 1 .222.03Z" clip-rule="evenodd"/><path fill="#CD7D25" fill-rule="evenodd" d="m11.85 48.565 1.418.81a.29.29 0 0 1 .108.395L5.98 62.418a3.21 3.21 0 0 1-1.948 1.473 3.25 3.25 0 0 1-2.432-.313 3.117 3.117 0 0 1-.657-.496 3.256 3.256 0 0 0 2.062-.131 3.207 3.207 0 0 0 1.556-1.342l7.395-12.649a.287.287 0 0 0-.108-.395Z" clip-rule="evenodd"/><path fill="#B76F21" fill-rule="evenodd" d="M13.268 49.374a.29.29 0 0 1 .108.395l-1.92 3.283-5.554-3.168L7.821 46.6a.29.29 0 0 1 .178-.134.296.296 0 0 1 .222.03l5.047 2.877Z" clip-rule="evenodd"/><path fill="#A3631D" fill-rule="evenodd" d="M13.268 49.374a.288.288 0 0 1 .108.395l-1.92 3.282-1.419-.81 1.92-3.28a.287.287 0 0 0-.108-.396l1.42.81Z" clip-rule="evenodd"/><path fill="#64B5F6" fill-rule="evenodd" d="M24.515 26.62a1.677 1.677 0 0 1 2.357 0 1.636 1.636 0 0 1 0 2.327l-8.129 8.029a1.67 1.67 0 0 1-1.325.475 1.682 1.682 0 0 1-1.22-.698l-3.42-4.25a1.638 1.638 0 0 1-.378-1.22 1.627 1.627 0 0 1 .62-1.118 1.671 1.671 0 0 1 1.243-.344 1.675 1.675 0 0 1 1.118.638l2.325 2.888 6.809-6.726v-.002Z" clip-rule="evenodd"/><path fill="#42A5F5" fill-rule="evenodd" d="M27.212 27.103a1.629 1.629 0 0 1-.34 1.844l-8.128 8.029a1.67 1.67 0 0 1-1.326.475 1.682 1.682 0 0 1-1.22-.698l-3.42-4.25a1.634 1.634 0 0 1-.211-1.704c.056.122.127.236.21.341l3.421 4.25a1.66 1.66 0 0 0 1.22.699 1.686 1.686 0 0 0 1.326-.475l8.129-8.029c.142-.139.256-.302.339-.482Z" clip-rule="evenodd"/></g><defs><clipPath id="a"><path fill="#fff" d="M0 0h68.129v64H0z"/></clipPath></defs></svg>