<svg xmlns="http://www.w3.org/2000/svg" width="64" height="64" fill="none"><g clip-path="url(#a)"><path fill="#FFD36C" d="M58.955 0H4.99a4.988 4.988 0 0 0-3.528 1.463A4.996 4.996 0 0 0 0 4.994v15.389a4.998 4.998 0 0 0 3.08 4.615c.606.25 1.255.38 1.91.38h3.824l4.76 6.36 4.761-6.36H58.96a4.988 4.988 0 0 0 4.61-3.084c.251-.606.38-1.256.38-1.912V4.995A4.998 4.998 0 0 0 60.866.38 4.986 4.986 0 0 0 58.955 0Z"/><path fill="#FCC645" d="M58.955 0H53.75a4.988 4.988 0 0 1 4.99 4.994v15.389a4.998 4.998 0 0 1-3.08 4.619 4.988 4.988 0 0 1-1.91.381h5.21a4.988 4.988 0 0 0 4.61-3.084c.251-.606.38-1.255.38-1.912V5A4.997 4.997 0 0 0 60.867.38 4.986 4.986 0 0 0 58.955 0Z"/><path fill="#fff" d="m13.828 6.503 1.797 3.64a.35.35 0 0 0 .264.192l4.012.583a.352.352 0 0 1 .195.6l-2.903 2.833a.352.352 0 0 0-.1.312l.685 4.003a.352.352 0 0 1-.51.375l-3.59-1.887a.345.345 0 0 0-.327 0l-3.59 1.88a.35.35 0 0 1-.51-.375l.684-4.004a.353.353 0 0 0-.101-.311L6.93 11.519a.35.35 0 0 1 .195-.6l4.013-.584a.35.35 0 0 0 .265-.193l1.793-3.639a.352.352 0 0 1 .632 0ZM32.287 6.503l1.795 3.64a.35.35 0 0 0 .265.192l4.013.583a.352.352 0 0 1 .195.6l-2.904 2.833a.35.35 0 0 0-.101.312l.685 4.003a.352.352 0 0 1-.51.375l-3.59-1.887a.346.346 0 0 0-.327 0L28.22 19.04a.35.35 0 0 1-.51-.375l.685-4.003a.35.35 0 0 0-.102-.312L25.39 11.52a.352.352 0 0 1 .195-.6l4.012-.584a.352.352 0 0 0 .265-.193l1.795-3.639a.35.35 0 0 1 .625 0h.005ZM50.75 6.503l1.794 3.64a.35.35 0 0 0 .265.192l4.012.583a.352.352 0 0 1 .195.6l-2.904 2.833a.356.356 0 0 0-.101.312l.686 4.003a.353.353 0 0 1-.511.375l-3.589-1.887a.343.343 0 0 0-.326 0l-3.59 1.887a.352.352 0 0 1-.51-.375l.686-4.003a.356.356 0 0 0-.101-.312l-2.905-2.832a.35.35 0 0 1 .195-.6l4.013-.584a.353.353 0 0 0 .265-.193l1.793-3.639a.352.352 0 0 1 .632 0Z"/><path fill="#F7F3F1" d="M13.51 64.001c7.461 0 13.51-6.054 13.51-13.521 0-7.468-6.049-13.522-13.51-13.522C6.049 36.958 0 43.012 0 50.48 0 57.947 6.049 64 13.51 64Z"/><path fill="#E8465E" d="M13.496 52.41a4.89 4.89 0 0 0 4.889-4.893 4.89 4.89 0 0 0-4.889-4.893 4.89 4.89 0 0 0-4.889 4.893 4.89 4.89 0 0 0 4.89 4.893Z"/><path fill="#E8465E" d="M13.5 52.41a8.87 8.87 0 0 0-5.903 2.247 8.885 8.885 0 0 0-2.915 5.609v.445a13.503 13.503 0 0 0 17.66 0v-.19a8.885 8.885 0 0 0-2.845-5.776A8.871 8.871 0 0 0 13.5 52.41Z"/><path fill="#EBE1DC" d="M61.565 43.075h-26.5c-3.074 0-3.078-4.765 0-4.765h26.5c3.073 0 3.077 4.764 0 4.764ZM61.625 52.862h-26.5c-3.073 0-3.078-4.766 0-4.766h26.5c3.077 0 3.08 4.766 0 4.766ZM61.694 62.651h-26.5c-3.073 0-3.077-4.764 0-4.764h26.5c3.072-.004 3.077 4.764 0 4.764Z"/></g><defs><clipPath id="a"><path fill="#fff" d="M0 0h64v64H0z"/></clipPath></defs></svg>