<svg xmlns="http://www.w3.org/2000/svg" width="64" height="64" fill="none"><g clip-path="url(#a)"><path fill="#FFDF3D" d="M64 26.831 32 5.581 0 26.831l32 25.11 32-25.11Z"/><path fill="#F2C711" d="m32 9.446 28.138 19.95L64 26.831 32 5.581 0 26.831l3.5 2.324L32 9.446Z"/><path fill="#F9F7F8" d="M53.25 50.736h-42.5V3.863A3.864 3.864 0 0 1 14.616 0h34.769a3.864 3.864 0 0 1 3.865 3.862v46.874Z"/><path fill="#E5E1E5" d="M49.384 0h-3.862a3.863 3.863 0 0 1 3.862 3.864v46.875h3.866V3.862A3.863 3.863 0 0 0 49.384 0Z"/><path fill="#FFFBE5" d="M60.138 64H3.861A3.863 3.863 0 0 1 0 60.138V26.83l32 21.25 32-21.25v33.305A3.864 3.864 0 0 1 60.138 64Z"/><path fill="#FCECA9" d="M60.137 29.396v30.74A3.864 3.864 0 0 1 56.273 64h3.864A3.863 3.863 0 0 0 64 60.138V26.83l-3.863 2.565Z"/><path fill="#FFDF3D" d="m64 55.805-27.726-18.41a7.725 7.725 0 0 0-8.548 0L0 55.805v4.331A3.864 3.864 0 0 0 3.862 64h56.274A3.864 3.864 0 0 0 64 60.138v-4.333Z"/><path fill="#F4DA6E" d="M64 60.138v-4.333l-3.863-2.565v6.898A3.864 3.864 0 0 1 56.273 64h3.864A3.864 3.864 0 0 0 64 60.138Z"/><path fill="#00516A" d="m20.415 20.543 2.172 3.143a1.039 1.039 0 0 0 1.175.427 1.064 1.064 0 0 0 .735-1.05v-5.625a.966.966 0 1 0-1.932 0v2.823l-2.315-3.365a.964.964 0 0 0-1.76.549v5.814a.966.966 0 0 0 1.932 0v-2.716h-.007ZM26.6 24.198h2.431a.964.964 0 0 0 .924-1.344.967.967 0 0 0-.924-.588h-1.466v-.953h1.287a.966.966 0 1 0 0-1.933h-1.287v-.954h1.466a.968.968 0 0 0 .924-1.343.967.967 0 0 0-.924-.588H26.6a.966.966 0 0 0-.966.966v5.772a.966.966 0 0 0 .966.965ZM45.483 22.166c.162-.907-.238-2.087-1.845-2.68a27.49 27.49 0 0 1-1.536-.625c-.144-.166.06-.357.257-.416.694-.209 1.359.308 1.385.328a.966.966 0 0 0 1.236-1.485c-.537-.45-1.81-1.104-3.178-.693a2.288 2.288 0 0 0-1.652 1.849c-.125.835.28 1.787 1.067 2.137.033.015.842.375 1.75.712.305.113.648.318.61.528-.033.188-.305.466-.783.466a1.784 1.784 0 0 1-1.31-.537.967.967 0 1 0-1.431 1.297 3.697 3.697 0 0 0 2.75 1.18c1.344 0 2.472-.864 2.685-2.057l-.005-.004ZM38.393 16.5a.966.966 0 0 0-1.136.759l-.491 2.468-.794-2.575a.965.965 0 0 0-1.861.063l-.779 2.514-.49-2.479a.966.966 0 0 0-1.895.375l1.135 5.738a1.099 1.099 0 0 0 1.071.864h.008a1.096 1.096 0 0 0 1.031-.743l.008-.025.85-2.743.845 2.743a1.096 1.096 0 0 0 1.046.768h.007a1.093 1.093 0 0 0 1.064-.866l1.14-5.725a.963.963 0 0 0-.759-1.135V16.5ZM18.259 31.946H17.19v-4.855a.966.966 0 0 0-1.932 0v5.82a.967.967 0 0 0 .802.953 83.91 83.91 0 0 0 2.209.014.966.966 0 0 0 0-1.932h-.011ZM23.74 28.084a.966.966 0 1 0 0-1.931h-2.432a.967.967 0 0 0-.965.966v5.771a.966.966 0 0 0 .965.966h2.432a.966.966 0 0 0 0-1.932h-1.466v-.954h1.286a.968.968 0 0 0 .924-1.343.968.968 0 0 0-.924-.588h-1.286v-.954h1.466v-.001ZM41.626 28.084a.966.966 0 1 0 0-1.931h-2.43a.967.967 0 0 0-.965.966v5.771a.967.967 0 0 0 .966.966h2.428a.966.966 0 0 0 0-1.932h-1.463v-.954h1.287a.968.968 0 0 0 .924-1.343.967.967 0 0 0-.924-.588h-1.287v-.954h1.464v-.001ZM29.945 26.125h-3.218a.966.966 0 0 0 0 1.931h.637v4.859a.966.966 0 1 0 1.932 0v-4.857h.649a.966.966 0 0 0 0-1.932v-.001ZM36.162 26.125h-3.218a.966.966 0 0 0 0 1.931h.636v4.859a.966.966 0 0 0 1.933 0v-4.857h.649a.966.966 0 1 0 0-1.932v-.001ZM47.25 30.855a2.478 2.478 0 0 0 1.5-2.25c0-1.367-1.15-2.479-2.566-2.479h-1.551a.967.967 0 0 0-.966.965v5.825a.968.968 0 0 0 1.66.706.965.965 0 0 0 .27-.706v-1.018l1.46 1.656a.966.966 0 0 0 1.45-1.275l-1.257-1.424Zm-1.072-2.797c.337 0 .634.25.634.547 0 .297-.297.549-.634.549h-.576v-1.098l.576.002Z"/><path fill="#FFDF3D" d="m37.297 11.915-7.392-2.194V6.08l7.392-2.194a.515.515 0 0 1 .662.5v7.036a.517.517 0 0 1-.663.494Z"/><path fill="#F2C711" d="m37.296 3.885-3.201.95v6.125l3.201.95a.516.516 0 0 0 .663-.494V4.375a.516.516 0 0 0-.663-.49Z"/><path fill="#FFDF3D" d="m28.279 14.031-.936-4.789a.966.966 0 0 1 1.895-.375l.937 4.788a.967.967 0 0 1-1.896.375v.001Z"/><path fill="#00516A" d="M29.905 6.079V9.72h-2.043a1.821 1.821 0 1 1 0-3.642h2.043Z"/></g><defs><clipPath id="a"><path fill="#fff" d="M0 0h64v64H0z"/></clipPath></defs></svg>