<svg xmlns="http://www.w3.org/2000/svg" width="64" height="64" fill="none"><g clip-path="url(#a)"><path fill="#BFDBF0" d="M48.553 24.277V3.31A3.31 3.31 0 0 0 45.242 0H3.31A3.31 3.31 0 0 0 0 3.31v52.966a7.725 7.725 0 0 0 7.725 7.725h48.31l-7.482-39.724Z"/><path fill="#9EBBCE" d="M64.001 26.483v29.793a7.724 7.724 0 0 1-7.725 7.725h-.242a7.945 7.945 0 0 1-7.481-8.044V24.276h13.241a2.214 2.214 0 0 1 2.207 2.207Z"/><path fill="#3C5C88" d="M38.621 38.621h2.207a3.31 3.31 0 0 1 0 6.621h-2.207v-6.62Z"/><path fill="#29486D" d="m30.898 46.345 1.723 5.173a1.102 1.102 0 0 1-1.047 1.452h-2.088a1.106 1.106 0 0 1-1.047-.754l-1.956-5.867 2.208-1.103 2.207 1.1Z"/><path fill="#3C5C88" d="M26.483 37.518H32v8.827h-5.517a4.413 4.413 0 0 1 0-8.827Z"/><path fill="#fff" d="M30.898 46.345c4.008 0 6.236 1.489 7.45 2.919a.776.776 0 0 0 1.376-.503V35.104a.775.775 0 0 0-1.377-.503c-1.213 1.43-3.438 2.919-7.45 2.919v8.825Z"/><path fill="#9EBBCE" d="M44.139 25.38H4.415a1.103 1.103 0 1 1 0-2.207h39.724a1.104 1.104 0 0 1 0 2.207ZM44.139 19.862H4.415a1.103 1.103 0 1 1 0-2.206h39.724a1.103 1.103 0 1 1 0 2.206ZM44.139 30.898H4.415a1.103 1.103 0 1 1 0-2.208h39.724a1.104 1.104 0 0 1 0 2.208ZM41.932 58.484H4.415a1.107 1.107 0 0 1-1.143-1.104 1.104 1.104 0 0 1 1.143-1.104h37.517a1.105 1.105 0 0 1 0 2.208ZM17.656 36.414H4.415a1.103 1.103 0 0 1 0-2.206h13.241a1.103 1.103 0 1 1 0 2.206ZM17.656 41.932H4.415a1.103 1.103 0 1 1 0-2.208h13.241a1.105 1.105 0 0 1 0 2.208ZM17.656 47.45H4.415a1.103 1.103 0 1 1 0-2.208h13.241a1.105 1.105 0 0 1 0 2.207ZM15.449 52.966H4.415a1.103 1.103 0 1 1 0-2.206h11.034a1.103 1.103 0 1 1 0 2.206Z"/><path fill="#29486D" d="M6.62 3.31H4.416A1.104 1.104 0 0 0 3.31 4.415v8.827a1.104 1.104 0 1 0 2.208 0v-3.31H6.62a3.31 3.31 0 1 0 0-6.622Zm0 4.415H5.519V5.518H6.62a1.104 1.104 0 1 1 0 2.207ZM15.449 3.31H13.24a1.103 1.103 0 0 0-1.103 1.105v8.826a1.107 1.107 0 0 0 .673 1.055 1.104 1.104 0 0 0 1.535-1.054v-3.31h1.103a1.103 1.103 0 0 1 1.103 1.103v2.207a1.107 1.107 0 0 0 .672 1.054 1.104 1.104 0 0 0 1.535-1.054v-2.207a3.282 3.282 0 0 0-.861-2.207 3.296 3.296 0 0 0-2.45-5.518Zm-1.103 2.208h1.103a1.104 1.104 0 0 1 0 2.207h-1.103V5.518ZM25.38 5.518a1.104 1.104 0 0 0 0-2.208h-3.31a1.103 1.103 0 0 0-1.103 1.105v8.827a1.102 1.102 0 0 0 1.103 1.104h3.31a1.104 1.104 0 0 0 0-2.208h-2.207V9.931h1.104a1.103 1.103 0 1 0 0-2.206h-1.104V5.518h2.207ZM32 7.725a1.104 1.104 0 1 1 .958-1.655 1.103 1.103 0 0 0 1.91-1.104A3.311 3.311 0 1 0 32 9.93a1.105 1.105 0 1 1-.957 1.655 1.103 1.103 0 1 0-1.91 1.105 3.31 3.31 0 1 0 2.867-4.966ZM40.829 7.725a1.104 1.104 0 1 1 .957-1.655 1.103 1.103 0 1 0 1.91-1.104 3.311 3.311 0 1 0-2.867 4.965 1.104 1.104 0 1 1-.957 1.655 1.103 1.103 0 0 0-1.91 1.105 3.312 3.312 0 0 0 5.734 0 3.311 3.311 0 0 0-2.867-4.966Z"/></g><defs><clipPath id="a"><path fill="#fff" d="M0 0h64v64H0z"/></clipPath></defs></svg>