<svg xmlns="http://www.w3.org/2000/svg" width="64" height="64" fill="none"><path fill="#A4C0D8" d="M43.987 62.83H20.383c3.154-2.132 5.08-4.36 5.607-6.673a5.701 5.701 0 0 0-.028-2.852h12.431a5.701 5.701 0 0 0-.028 2.852c.527 2.312 2.465 4.541 5.622 6.673Z"/><path fill="#D7E6EF" fill-opacity=".22" d="M38.365 56.157h-4.681a9.148 9.148 0 0 0-7.075 3.286c-.95 1.154-2.254 2.282-3.887 3.386h-2.34c3.155-2.132 5.08-4.361 5.608-6.673a5.701 5.701 0 0 0-.028-2.852h12.431a5.702 5.702 0 0 0-.028 2.853Z"/><path fill="#D7E6EF" d="m56.92 54.606-49.84.16a6.137 6.137 0 0 1-6.139-6.139V15.534a6.14 6.14 0 0 1 6.14-6.14l49.839-.16a6.14 6.14 0 0 1 6.139 6.14v33.092a6.138 6.138 0 0 1-6.14 6.14Z"/><path fill="#A4C0D8" d="M11.128 54.76h-4.05a6.13 6.13 0 0 1-6.135-6.134v-33.09a6.14 6.14 0 0 1 6.134-6.142h4.051a6.152 6.152 0 0 0-6.147 6.147v33.085a6.14 6.14 0 0 0 6.147 6.134Z"/><path fill="#D6ECFF" d="M6.48 43.916V17.474a2.54 2.54 0 0 1 2.54-2.542l45.96-.159a2.543 2.543 0 0 1 2.541 2.542v26.442a2.541 2.541 0 0 1-2.542 2.541l-45.959.16a2.542 2.542 0 0 1-2.54-2.542Z"/><path fill="#B9DEF9" d="M12.656 46.458H9.019a2.54 2.54 0 0 1-2.537-2.537V17.478a2.543 2.543 0 0 1 2.537-2.55h3.637a2.544 2.544 0 0 0-2.537 2.55v26.438a2.538 2.538 0 0 0 2.537 2.542Z"/><path fill="#312E4B" d="M32.184 52.763a2.034 2.034 0 1 0 0-4.067 2.034 2.034 0 0 0 0 4.067Z"/><path fill="#F7FBFF" d="M50.998 46.458H13.001V3.528A2.587 2.587 0 0 1 15.586.94h32.827a2.586 2.586 0 0 1 2.585 2.587v42.93Z"/><path fill="#1C5B98" d="M15.595 11.915V5.426a1.9 1.9 0 0 1 1.899-1.9h29.02a1.9 1.9 0 0 1 1.9 1.9v6.488a1.9 1.9 0 0 1-1.9 1.899h-29.02a1.9 1.9 0 0 1-1.9-1.9Z"/><path fill="#00516A" d="M19.562 13.816h-2.071a1.904 1.904 0 0 1-1.902-1.902V5.432a1.905 1.905 0 0 1 1.902-1.902h2.071a1.896 1.896 0 0 0-1.903 1.902v6.484a1.897 1.897 0 0 0 1.903 1.901Z"/><path fill="#fff" d="M25.44 8.591c.106-.094.198-.207.275-.335.143-.25.216-.549.208-.852a1.68 1.68 0 0 0-.104-.641 1.444 1.444 0 0 0-.332-.521c-.282-.281-.68-.424-1.184-.424h-1.567a.362.362 0 0 0-.168.039.425.425 0 0 0-.141.115.575.575 0 0 0-.124.366v4.786c0 .068.01.135.032.197.021.063.053.12.094.167.04.048.087.085.14.11a.367.367 0 0 0 .166.038h1.606c.62 0 1.083-.15 1.38-.446.297-.296.46-.725.46-1.256a1.506 1.506 0 0 0-.291-.944c-.128-.164-.28-.3-.45-.399Zm-.108 1.31a.731.731 0 0 1-.05.305.618.618 0 0 1-.165.239c-.156.137-.437.206-.835.206h-1.104v-1.49h1.116c1.038 0 1.038.558 1.038.74Zm-2.16-1.703V6.803h1.083a.926.926 0 0 1 .622.19c.063.052.115.121.15.202a.626.626 0 0 1 .05.263.77.77 0 0 1-.04.296.668.668 0 0 1-.147.245c-.133.13-.39.2-.745.2h-.973ZM30.522 10.606h-2.356V6.334a.508.508 0 1 0-1.015.004v4.648a.642.642 0 0 0 .64.65h2.73a.493.493 0 0 0 .358-.146.493.493 0 0 0 .151-.363.518.518 0 0 0-.149-.365.492.492 0 0 0-.36-.156ZM35.456 6.193a3.026 3.026 0 0 0-1.52-.374 3.033 3.033 0 0 0-1.517.374 2.621 2.621 0 0 0-1.018 1.035c-.243.466-.37.98-.37 1.502 0 .52.128 1.033.37 1.496.232.432.585.791 1.018 1.035.464.256.99.385 1.523.375a3.026 3.026 0 0 0 1.52-.375 2.631 2.631 0 0 0 1.016-1.038c.244-.463.371-.977.37-1.498a3.198 3.198 0 0 0-.376-1.492 2.631 2.631 0 0 0-1.016-1.04Zm.363 2.534c.008.347-.069.692-.222 1.005a1.686 1.686 0 0 1-.647.69 1.933 1.933 0 0 1-1.009.253 1.935 1.935 0 0 1-1.012-.253 1.689 1.689 0 0 1-.644-.69 2.18 2.18 0 0 1-.222-1.005 2.18 2.18 0 0 1 .222-1.005c.143-.285.367-.525.645-.69a1.929 1.929 0 0 1 1.011-.253c.354-.009.704.079 1.01.254.278.165.502.404.646.69.153.312.23.655.222 1.002v.002ZM42.519 8.466a.483.483 0 0 0-.354-.152h-1.45a.422.422 0 0 0-.313.137.46.46 0 0 0-.132.332.475.475 0 0 0 .276.428.423.423 0 0 0 .173.035h1.067v1.141c-.355.185-.748.28-1.145.277a1.897 1.897 0 0 1-.998-.252 1.66 1.66 0 0 1-.635-.682 2.183 2.183 0 0 1-.222-.998c-.01-.365.072-.726.236-1.048.146-.281.37-.51.642-.657.29-.155.611-.233.937-.228.24-.002.479.032.71.101.233.075.457.18.666.313a.462.462 0 0 0 .552-.086.495.495 0 0 0 .061-.573.404.404 0 0 0-.151-.16 3.836 3.836 0 0 0-.861-.421 3.273 3.273 0 0 0-1.05-.154 2.613 2.613 0 0 0-2.352 1.398 3.166 3.166 0 0 0-.357 1.519c-.008.52.11 1.035.341 1.496.222.434.559.793.97 1.034.434.25.924.378 1.42.37a3.775 3.775 0 0 0 1.75-.445.634.634 0 0 0 .263-.244.7.7 0 0 0 .104-.37V8.835a.525.525 0 0 0-.148-.37Z"/><path fill="#CAFFD9" d="M29.677 18.837v8.788a.525.525 0 0 1-.013.142 1.636 1.636 0 0 1-1.63 1.5H17.24a1.646 1.646 0 0 1-1.643-1.642v-8.788a1.646 1.646 0 0 1 1.643-1.656h10.793a1.65 1.65 0 0 1 1.643 1.656Z"/><path fill="#DADADA" d="M48.414 17.796a.607.607 0 0 1-.607.607H33.636a.607.607 0 1 1 0-1.215h14.17a.607.607 0 0 1 .608.608ZM48.414 21.416a.607.607 0 0 1-.607.608H33.636a.609.609 0 1 1 0-1.216h14.17a.606.606 0 0 1 .608.608ZM48.414 25.034a.607.607 0 0 1-.607.609H33.636a.609.609 0 1 1 0-1.218h14.17a.607.607 0 0 1 .608.61ZM48.414 28.658a.607.607 0 0 1-.607.608H33.636a.609.609 0 1 1 0-1.217h14.17a.607.607 0 0 1 .608.609Z"/><path fill="#FFE1AC" d="M35.981 43.82h10.79a1.644 1.644 0 0 0 1.644-1.645v-8.788a1.644 1.644 0 0 0-1.645-1.65H35.981a1.645 1.645 0 0 0-1.644 1.644v8.79a1.643 1.643 0 0 0 1.644 1.649Z"/><path fill="#DADADA" d="M15.595 32.35a.608.608 0 0 0 .608.608h14.17a.609.609 0 1 0 0-1.216h-14.17a.607.607 0 0 0-.608.608ZM15.595 35.97a.608.608 0 0 0 .608.61h14.17a.609.609 0 1 0 0-1.218h-14.17a.609.609 0 0 0-.608.609ZM15.595 39.592a.608.608 0 0 0 .608.608h14.17a.609.609 0 1 0 0-1.217h-14.17a.608.608 0 0 0-.608.609ZM15.595 43.212a.607.607 0 0 0 .608.608h14.17a.607.607 0 1 0 0-1.216h-14.17a.609.609 0 0 0-.608.608Z"/><path fill="#179C5F" d="M29.664 27.767a1.636 1.636 0 0 1-1.63 1.5H17.24a1.646 1.646 0 0 1-1.643-1.642v-.357l3.739-5.434a.657.657 0 0 1 1.062 0l2.743 3.989a.649.649 0 0 0 1.051.013l1.514-2.07a.641.641 0 0 1 1.035 0l2.922 4Z"/><path fill="#179C5F" d="M23.619 22.793a1.236 1.236 0 1 0 0-2.472 1.236 1.236 0 0 0 0 2.471Z"/><path fill="#E87F21" d="M48.409 42.319a1.636 1.636 0 0 1-1.631 1.5H35.986a1.646 1.646 0 0 1-1.644-1.642v-.363l3.74-5.435a.657.657 0 0 1 1.061 0l2.743 3.998a.648.648 0 0 0 1.051.014l1.515-2.07a.643.643 0 0 1 1.035 0l2.922 3.998Z"/><path fill="#E87F21" d="M42.365 37.345a1.236 1.236 0 1 0 0-2.472 1.236 1.236 0 0 0 0 2.472Z"/></svg>