<svg xmlns="http://www.w3.org/2000/svg" width="64" height="64" fill="none"><g clip-path="url(#a)"><path fill="#FFD151" d="M32 57.912c-14.3 0-25.936-11.63-25.936-25.926C6.064 17.69 17.698 6.061 32 6.061S57.935 17.69 57.935 31.986c0 14.297-11.636 25.926-25.935 25.926Zm0-49.736c-13.136 0-23.82 10.682-23.82 23.812C8.18 45.117 18.863 55.8 32 55.8c13.135 0 23.82-10.682 23.82-23.812C55.82 18.857 45.134 8.175 32 8.175Z"/><path fill="#000" d="M23.916 11.953a11.95 11.95 0 0 1-7.382 11.044 11.962 11.962 0 0 1-13.032-2.591A11.952 11.952 0 0 1 11.958 0a11.952 11.952 0 0 1 11.958 11.953Z"/><path fill="#262626" d="M11.957 0c-.683 0-1.365.058-2.038.174a11.96 11.96 0 0 1 9.922 11.78 11.952 11.952 0 0 1-9.922 11.78 11.964 11.964 0 0 0 12.537-6.05A11.952 11.952 0 0 0 11.957 0Z"/><path fill="#4267B2" d="M64 11.953a11.95 11.95 0 0 1-7.382 11.044 11.962 11.962 0 0 1-13.031-2.59A11.952 11.952 0 0 1 52.04 0 11.953 11.953 0 0 1 64 11.953Z"/><path fill="#fff" d="M63.995 11.611A11.95 11.95 0 0 0 56.3.78 11.962 11.962 0 0 0 51.7 0c-.62.02-1.236.087-1.846.2a11.96 11.96 0 0 1 9.772 11.753 11.952 11.952 0 0 1-9.771 11.753 11.963 11.963 0 0 0 13.119-6.909 11.952 11.952 0 0 0 1.02-5.186Z" opacity=".11"/><path fill="red" d="M23.916 52.047a11.95 11.95 0 0 1-7.382 11.043A11.961 11.961 0 0 1 .23 54.38a11.95 11.95 0 0 1 5.084-12.271 11.961 11.961 0 0 1 15.1 1.486 11.95 11.95 0 0 1 3.502 8.453Z"/><path fill="#fff" d="M11.957 40.093c-.906 0-1.81.102-2.693.305a11.962 11.962 0 0 1 9.258 11.647 11.954 11.954 0 0 1-9.258 11.648 11.965 11.965 0 0 0 12.982-5.556A11.953 11.953 0 0 0 11.957 40.09v.002Z" opacity=".1"/><path fill="url(#b)" d="M64 52.047a11.95 11.95 0 0 1-7.382 11.043 11.962 11.962 0 0 1-16.304-8.71 11.95 11.95 0 0 1 5.084-12.272 11.961 11.961 0 0 1 17.691 5.364c.601 1.45.91 3.005.91 4.575Z"/><path fill="#fff" d="M52.042 40.093c-.81 0-1.617.081-2.41.243a11.961 11.961 0 0 1 9.549 11.71 11.953 11.953 0 0 1-9.55 11.711 11.961 11.961 0 0 0 14.31-10.498 11.95 11.95 0 0 0-7.043-12.136 11.964 11.964 0 0 0-4.856-1.03Z" opacity=".14"/><path fill="#FFD151" d="m28.105 41.654-.055-7.365a1.056 1.056 0 0 0-2.111.016l.055 7.366a1.055 1.055 0 0 0 1.008 1.047l.055.003a1.057 1.057 0 0 0 1.048-1.067Z"/><path fill="#505FE1" d="M29.453 34.302h-4.424a.971.971 0 0 1-.971-.97v-5.073a.972.972 0 0 1 .97-.972h4.425a.152.152 0 0 1 .151.152v6.713a.152.152 0 0 1-.151.15Z"/><path fill="#E5F4FF" d="M38.99 37.676a29.95 29.95 0 0 0-9.387-3.757v-6.262A29.701 29.701 0 0 0 39 23.904l-.01 13.772Z"/><path fill="#505FE1" d="M38.99 39.711a1.057 1.057 0 0 1-1.055-1.055V22.934a1.055 1.055 0 1 1 2.112 0v15.722a1.056 1.056 0 0 1-1.056 1.055Z"/><path fill="#fff" d="m16.349 16.193-3.49-5.068-.394-.572L9.969 6.93l-.207-.301H6.695l.752 1.086 3.315 4.82.395.573 2.666 3.872.21.305h3.066l-.75-1.091Zm-1.954.393-2.77-4.023-.395-.573-3.212-4.67h1.379l2.6 3.777.395.573 3.383 4.916h-1.38Z"/><path fill="#fff" d="m11.23 11.99.395.573-.467.544-3.589 4.173h-.884l4.078-4.746.467-.544ZM16.729 6.628l-3.869 4.498-.467.543-.395-.572.469-.544 2.62-3.048.756-.877h.886ZM54.822 58.498h-5.56a3.678 3.678 0 0 1-3.673-3.672v-5.559a3.675 3.675 0 0 1 3.673-3.672h5.56a3.679 3.679 0 0 1 3.674 3.672v5.559a3.677 3.677 0 0 1-3.674 3.672Zm-5.56-11.797a2.57 2.57 0 0 0-2.567 2.566v5.559a2.568 2.568 0 0 0 2.567 2.566h5.56a2.572 2.572 0 0 0 2.568-2.566v-5.559a2.569 2.569 0 0 0-2.568-2.566h-5.56Z"/><path fill="#fff" d="M52.042 55.35a3.306 3.306 0 0 1-3.243-3.947 3.304 3.304 0 0 1 4.506-2.409 3.305 3.305 0 0 1 2.04 3.053 3.307 3.307 0 0 1-3.303 3.304Zm0-5.501a2.199 2.199 0 1 0-.003 4.4 2.199 2.199 0 0 0 .003-4.402v.002ZM56.282 48.554a.794.794 0 1 1-1.589 0 .794.794 0 0 1 1.59 0ZM53.026 18.322v-5.761h1.944l.29-2.255h-2.234V8.86c0-.651.18-1.096 1.116-1.096h1.185V5.75c-.577-.06-1.157-.09-1.738-.088-1.719 0-2.895 1.049-2.895 2.975v1.66h-1.937v2.255h1.937v5.768l2.331.002ZM16.004 47.443H7.986a2.437 2.437 0 0 0-2.437 2.436v4.332a2.434 2.434 0 0 0 2.435 2.438h8.02a2.438 2.438 0 0 0 2.437-2.436V49.88a2.436 2.436 0 0 0-2.437-2.437ZM10.3 54.02v-3.95l3.395 1.976L10.3 54.02Z"/></g><defs><linearGradient id="b" x1="40.084" x2="64" y1="52.047" y2="52.047" gradientUnits="userSpaceOnUse"><stop stop-color="#FEC053"/><stop offset=".33" stop-color="#F2203E"/><stop offset=".65" stop-color="#B729A8"/><stop offset="1" stop-color="#5342D6"/></linearGradient><clipPath id="a"><path fill="#fff" d="M0 0h64v64H0z"/></clipPath></defs></svg>