<svg xmlns="http://www.w3.org/2000/svg" width="64" height="64" fill="none"><g clip-path="url(#a)"><path fill="#B7C9FF" fill-opacity=".1" d="M60.414 64H3.586A3.586 3.586 0 0 1 0 60.414V12.137h64v48.277A3.584 3.584 0 0 1 60.414 64Z"/><path fill="#556080" d="M64 13.241H0V3.586A3.585 3.585 0 0 1 3.586 0h56.828A3.584 3.584 0 0 1 64 3.586v9.655Z"/><path fill="#DD352E" d="M4.414 4.414h4.414v4.414H4.414V4.414Z"/><path fill="#EBBA16" d="M13.241 4.414h4.414v4.414h-4.414V4.414Z"/><path fill="#23A24D" d="M22.068 4.414h4.414v4.414h-4.414V4.414Z"/><path fill="#366DB6" d="M52.965 26.483H35.31a1.104 1.104 0 0 1 0-2.207h17.655a1.103 1.103 0 1 1 0 2.207Z"/><path fill="#75348B" d="M58.482 22.069H35.31a1.104 1.104 0 0 1 0-2.206h23.172a1.103 1.103 0 1 1 0 2.206Z"/><path fill="#23A24D" d="M35.31 30.896h11.035v4.414H35.31v-4.414Z"/><path fill="#75348B" d="M52.965 48.551H35.31a1.103 1.103 0 0 1 0-2.206h17.655a1.103 1.103 0 1 1 0 2.206Z"/><path fill="#ED8A19" d="M58.482 44.138H35.31a1.104 1.104 0 0 1 0-2.207h23.172a1.103 1.103 0 1 1 0 2.207Z"/><path fill="#23A24D" d="M35.31 52.965h11.035v4.41H35.31v-4.41Z"/><path fill="#FFE385" d="M5.518 19.863h24.275V35.31H5.518V19.862Z"/><path fill="#DD352E" d="M9.93 32a1.104 1.104 0 0 1-.78-1.884l4.415-4.413a1.103 1.103 0 1 1 1.56 1.56l-4.414 4.413a1.098 1.098 0 0 1-.78.324Z"/><path fill="#DD352E" d="M18.759 32a1.1 1.1 0 0 1-.78-.324l-4.414-4.413a1.102 1.102 0 0 1 0-1.56 1.103 1.103 0 0 1 1.56 0l4.414 4.413a1.104 1.104 0 0 1-.78 1.884Z"/><path fill="#DD352E" d="M16.552 29.793a1.103 1.103 0 0 1-.78-1.883l4.413-4.41a1.104 1.104 0 1 1 1.565 1.556l-4.415 4.414a1.1 1.1 0 0 1-.783.323Z"/><path fill="#DD352E" d="M25.375 29.793a1.1 1.1 0 0 1-.78-.323l-4.414-4.414a1.107 1.107 0 0 1 .366-1.8 1.104 1.104 0 0 1 1.203.244l4.413 4.414a1.103 1.103 0 0 1-.788 1.878Z"/><path fill="#FFE385" d="M5.518 41.931h24.275v15.444H5.518V41.931Z"/><path fill="#DD352E" d="M9.93 54.069a1.105 1.105 0 0 1-.78-1.884l4.415-4.414a1.1 1.1 0 0 1 1.56 0 1.103 1.103 0 0 1 0 1.56L10.71 53.75a1.099 1.099 0 0 1-.78.319Z"/><path fill="#DD352E" d="M18.759 54.069a1.1 1.1 0 0 1-.78-.323l-4.414-4.415a1.103 1.103 0 1 1 1.56-1.56l4.414 4.414a1.104 1.104 0 0 1-.78 1.884Z"/><path fill="#DD352E" d="M16.551 51.862a1.104 1.104 0 0 1-.78-1.883l4.414-4.414a1.105 1.105 0 0 1 1.565 1.56l-4.415 4.414a1.101 1.101 0 0 1-.784.323Z"/><path fill="#DD352E" d="M25.375 51.862a1.1 1.1 0 0 1-.78-.323l-4.41-4.414a1.104 1.104 0 1 1 1.565-1.56l4.413 4.414a1.104 1.104 0 0 1-.788 1.883Z"/></g><defs><clipPath id="a"><path fill="#fff" d="M0 0h64v64H0z"/></clipPath></defs></svg>