<svg width="60" height="60" viewBox="0 0 60 60" fill="none" xmlns="http://www.w3.org/2000/svg">
<path d="M5.3441 21.2168C5.3441 20.246 4.55707 19.459 3.58629 19.459H1.75781C0.787031 19.459 0 20.246 0 21.2168C0 22.1876 0.787031 22.9746 1.75781 22.9746H3.58629C4.55707 22.9746 5.3441 22.1876 5.3441 21.2168Z" fill="#FB9100"/>
<path d="M6.26067 7.10636C7.8427 7.10636 8.6309 5.15507 7.45985 4.063L6.12262 2.81589C5.41258 2.1539 4.30024 2.19281 3.63825 2.90261C2.97614 3.61265 3.01504 4.72488 3.72496 5.38699C4.80543 6.26894 5.18805 7.10636 6.26067 7.10636Z" fill="#FB9100"/>
<path d="M5.06225 35.5533L3.72502 36.8003C3.01498 37.4624 2.9762 38.5747 3.63819 39.2846C4.30053 39.9948 5.41264 40.0335 6.12268 39.3715L7.45991 38.1245C8.16994 37.4624 8.20873 36.35 7.54674 35.6401C6.88452 34.9301 5.77229 34.8912 5.06225 35.5533Z" fill="#FB9100"/>
<path d="M58.2425 19.2129H56.4141C55.4433 19.2129 54.6562 19.9999 54.6562 20.9707C54.6562 21.9415 55.4433 22.7285 56.4141 22.7285H58.2425C59.2133 22.7285 60.0004 21.9415 60.0004 20.9707C60.0004 19.9999 59.2133 19.2129 58.2425 19.2129Z" fill="#FB9100"/>
<path d="M54.9391 35.5531C54.229 34.8913 53.1168 34.9301 52.4546 35.64C51.7926 36.35 51.8314 37.4622 52.5414 38.1243L53.8787 39.3713C54.5902 40.0347 55.7023 39.993 56.3632 39.2845C57.0251 38.5745 56.9864 37.4622 56.2763 36.8001L54.9391 35.5531Z" fill="#FB9100"/>
<path d="M54.9391 6.63411L56.2763 5.38712C56.9863 4.72501 57.0251 3.61267 56.363 2.90274C55.7009 2.19282 54.5886 2.1538 53.8786 2.81603L52.5414 4.06302C51.8314 4.72513 51.7926 5.83747 52.4547 6.54739C53.1169 7.25743 54.2293 7.2961 54.9391 6.63411Z" fill="#FB9100"/>
<path d="M20.0391 47.6367C20.0391 49.8232 21.3779 51.7024 23.2786 52.5H36.7214C38.6221 51.7024 39.9609 49.8232 39.9609 47.6367V45.1172H20.0391V47.6367Z" fill="#FB9100"/>
<path d="M23.5547 58.2422C23.5547 59.2125 24.3422 60 25.3125 60H34.6875C35.6578 60 36.4453 59.2125 36.4453 58.2422V56.0156H23.5547V58.2422Z" fill="#FB9100"/>
<path d="M50.3377 21.0937C55.3393 15.988 52.4494 7.37659 45.4501 6.26178C43.693 0.419866 36.6329 -1.9056 31.7578 1.76213V42.2461H37.0313C40.9991 42.2461 44.3846 39.6399 45.4676 35.9229C52.4288 34.8001 55.3487 26.2091 50.3377 21.0937ZM35.2734 10.664C35.2734 9.69326 36.0605 8.90623 37.0313 8.90623C38.002 8.90623 38.7891 9.69326 38.7891 10.664C38.7891 12.4642 39.4714 12.7939 40.8308 13.4508C42.1178 14.0726 44.0625 15.0122 44.0625 17.6953C44.0625 18.6661 43.2755 19.4531 42.3047 19.4531C41.3339 19.4531 40.5469 18.6661 40.5469 17.6953C40.5469 17.3096 40.5469 17.218 39.3014 16.6162C37.795 15.8884 35.2734 14.6701 35.2734 10.664ZM45.6997 27.248C43.676 30.0522 40.5498 31.2159 39.6596 31.2159C38.8948 31.2159 38.1912 30.713 37.9704 29.941C37.7034 29.0076 38.2438 28.0346 39.1772 27.7677C40.6303 27.3521 41.9438 26.4449 42.8489 25.1906C43.417 24.4033 44.5158 24.2258 45.3029 24.7938C46.0902 25.3621 46.2679 26.4607 45.6997 27.248Z" fill="#FB9100"/>
<path d="M28.2424 42.2461V1.76213C23.3675 -1.90549 16.3073 0.419631 14.5502 6.26178C7.54695 7.37729 4.66308 15.9902 9.66265 21.0937C4.64984 26.2107 7.57484 34.8006 14.5327 35.9229C15.6192 39.6521 19.0118 42.2461 22.9691 42.2461H28.2424ZM19.1694 13.4508C20.5287 12.7939 21.2111 12.4643 21.2111 10.664C21.2111 9.69326 21.9982 8.90623 22.9689 8.90623C23.9397 8.90623 24.7268 9.69326 24.7268 10.664C24.7268 14.6701 22.2052 15.8884 20.6988 16.6162C19.4533 17.218 19.4533 17.3096 19.4533 17.6953C19.4533 18.6661 18.6663 19.4531 17.6955 19.4531C16.7247 19.4531 15.9377 18.6661 15.9377 17.6953C15.9377 15.0122 17.8824 14.0726 19.1694 13.4508ZM22.0298 29.941C21.8091 30.7128 21.1054 31.2159 20.3405 31.2159C19.4234 31.2159 16.5015 30.0614 14.5556 27.5865C13.9555 26.8233 14.0878 25.7182 14.8509 25.1182C15.6143 24.5181 16.7192 24.6504 17.3192 25.4135C18.1947 26.527 19.4281 27.3688 20.823 27.7676C21.7565 28.0346 22.2968 29.0076 22.0298 29.941Z" fill="#FB9100"/>
</svg>
