<svg width="60" height="60" viewBox="0 0 60 60" fill="none" xmlns="http://www.w3.org/2000/svg">
<path fill-rule="evenodd" clip-rule="evenodd" d="M30.7693 21.1531C33.8942 18.0899 37.99 16.5583 42.0856 16.5583C44.069 16.5583 45.9514 16.8628 47.7614 17.5707C47.8088 17.5892 47.8594 17.5798 47.8969 17.546C47.9342 17.5119 47.9474 17.4631 47.9323 17.4154C46.6542 13.4208 44.2651 9.90727 41.12 7.22198C41.0688 7.17824 40.992 7.18094 40.9441 7.22792L36.3328 11.748C35.9552 12.1181 35.3427 12.1181 34.9649 11.748C34.6366 11.4261 34.5937 10.9304 34.8363 10.563C34.8415 10.5552 34.8466 10.549 34.8534 10.5423L40.6491 4.86111C40.6742 4.83654 40.7047 4.82412 40.7403 4.82412H50.9758C51.0346 4.82412 51.0843 4.86125 51.1 4.91687C51.8972 7.73973 55.5496 8.72893 57.7049 6.6162C59.249 5.10264 59.249 2.64903 57.7049 1.13546C55.5496 -0.977259 51.8972 0.011801 51.1 2.8348C51.0843 2.89028 51.0346 2.92755 50.9758 2.92755H40.2863C40.0161 2.92755 39.7718 3.03623 39.5963 3.21133L37.941 4.83398C37.8987 4.87543 37.8352 4.88326 37.7838 4.85328C34.3635 2.85694 30.37 1.71019 26.1065 1.71019C25.5723 1.71019 25.1391 2.13478 25.1391 2.65848V23.6865C25.1391 23.7213 25.1265 23.7513 25.1014 23.7759L9.9327 38.6446C9.55505 39.0148 9.55505 39.6151 9.9327 39.9855C11.3651 41.3895 12.9899 42.6091 14.7659 43.6038C14.8019 43.6239 14.8241 43.6564 14.8296 43.6968C14.8351 43.7372 14.8223 43.7742 14.793 43.8029L11.869 46.6691C11.6904 46.8411 11.5795 47.0806 11.5795 47.3455V52.2687C11.5795 52.3263 11.5416 52.375 11.4849 52.3903C8.60487 53.1719 7.59615 56.7521 9.75132 58.8648C11.2954 60.3784 13.7985 60.3784 15.3425 58.8648C17.4978 56.7521 16.4887 53.1719 13.6089 52.3903C13.5523 52.3749 13.5143 52.3262 13.5143 52.2687V47.7905C13.5143 47.7556 13.527 47.7257 13.5521 47.7011L21.5995 39.8127C21.9772 39.4425 22.5896 39.4425 22.9674 39.8127C23.3451 40.1828 23.3451 40.7832 22.9674 41.1535L18.8386 45.2008C18.8061 45.2326 18.7937 45.2754 18.8043 45.3193C18.8149 45.3632 18.8455 45.396 18.889 45.4102C23.5687 46.9364 28.6636 46.9356 33.3552 45.3988C33.4038 45.3829 33.4366 45.3432 33.4423 45.2933C33.4483 45.2433 33.4254 45.1974 33.3816 45.1711C31.6972 44.1589 30.6192 43.3837 29.3361 41.7307C24.5334 35.5441 25.0751 26.7349 30.7693 21.1531ZM22.3161 22.2489C22.3161 22.5138 22.2052 22.7533 22.0266 22.9254L11.5337 33.2111C11.156 33.5813 10.5435 33.5813 10.1657 33.2111C8.54964 31.6269 7.2864 29.6996 6.48978 27.5609C6.47215 27.5137 6.48344 27.4637 6.5198 27.4282L14.0282 20.0682C14.4058 19.698 14.4058 19.0976 14.0282 18.7273C13.6505 18.3571 13.0381 18.3571 12.6603 18.7273L4.95907 26.2763C4.934 26.3009 4.92133 26.3309 4.92133 26.3657V41.0549C4.92133 41.1125 4.95934 41.1612 5.01595 41.1766C7.89584 41.958 8.90498 45.5383 6.74953 47.651C5.20546 49.1646 2.70239 49.1646 1.15832 47.651C-0.996844 45.5384 0.0118759 41.9582 2.89191 41.1766C2.94865 41.1612 2.98653 41.1126 2.98653 41.0549V25.9206C2.98653 25.6557 3.0974 25.4162 3.27603 25.2441L5.51246 23.0518C5.5389 23.0259 5.55157 22.9934 5.54978 22.9566C5.14128 14.1211 12.3344 6.74608 21.3487 6.74608C21.883 6.74608 22.3161 7.17068 22.3161 7.69437V22.2489ZM46.8725 34.3689C48.1016 35.5737 48.8644 37.2348 48.8644 39.0612V39.6891C48.8644 39.7269 48.8496 39.7595 48.8206 39.7843C44.9736 43.0932 39.1976 43.0932 35.3507 39.7843C35.3218 39.7595 35.3069 39.7268 35.3069 39.6891V39.0612C35.3069 37.2347 36.0698 35.5737 37.2989 34.3689C39.954 31.766 44.2172 31.766 46.8725 34.3689ZM44.0094 30.5589C42.9471 31.6002 41.2241 31.6002 40.1618 30.5589C38.4527 28.8834 39.669 26.0064 42.0856 26.0064C44.5025 26.0063 45.7185 28.8836 44.0094 30.5589ZM56.1547 32.2459C56.1547 35.4216 55.0424 38.5973 52.8183 41.1635C52.7747 41.2139 52.7777 41.288 52.8254 41.3347L54.4118 42.8899C54.4585 42.9356 54.5322 42.9395 54.5837 42.899C54.9523 42.6091 55.4433 42.6317 55.7648 42.9468L59.7445 46.848C60.0851 47.1819 60.0851 47.7282 59.7445 48.0621L58.2204 49.5561C57.8798 49.89 57.3225 49.89 56.9819 49.5561L53.0021 45.6549C52.6807 45.34 52.6576 44.8583 52.9533 44.4973C52.9948 44.4468 52.9906 44.3745 52.9439 44.3288L51.3575 42.7738C51.3098 42.727 51.2341 42.7241 51.1828 42.7669C48.5649 44.947 45.3252 46.0371 42.0853 46.0371C34.315 46.0371 28.0163 39.8629 28.0163 32.2461C28.0163 24.6292 34.315 18.455 42.0853 18.455C49.8559 18.4548 56.1547 24.6291 56.1547 32.2459ZM50.6818 23.8196C55.4294 28.4736 55.4294 36.0184 50.6818 40.6722C45.9341 45.3261 38.2372 45.3261 33.4896 40.6722C28.742 36.0184 28.7418 28.4736 33.4896 23.8197C38.2372 19.1656 45.934 19.1656 50.6818 23.8196Z" fill="#FFDAA8"/>
</svg>
