<svg width="60" height="61" viewBox="0 0 60 61" fill="none" xmlns="http://www.w3.org/2000/svg">
<path fill-rule="evenodd" clip-rule="evenodd" d="M58.0294 35.919C52.1215 35.919 49.1574 43.0909 53.3345 47.2767C54.104 48.0478 54.104 49.2984 53.3345 50.0695L49.0919 54.3208C48.3224 55.0919 47.0743 55.0919 46.3048 54.3208C42.1275 50.135 34.9703 53.1054 34.9703 59.0253C34.9703 60.1163 34.0878 61 32.9997 61H26.9999C25.9118 61 25.0293 60.1163 25.0293 59.0253C25.0293 53.0981 17.8775 50.1299 13.695 54.3208C12.9255 55.0919 11.6775 55.0919 10.908 54.3208L6.66536 50.0695C5.89586 49.2984 5.89586 48.0479 6.66536 47.2767C10.8426 43.0909 7.87848 35.919 1.97062 35.919C0.881873 35.919 0 35.0346 0 33.9443V31.5644C0 31.2195 0.28075 30.9381 0.624999 30.9381H14.7273C15.0627 30.9381 15.3382 31.2034 15.3516 31.5392C15.6663 39.374 22.1042 45.6288 30.0001 45.6288C37.8958 45.6288 44.3338 39.374 44.6485 31.5394C44.662 31.2037 44.9375 30.9383 45.2728 30.9383H59.375C59.7192 30.9383 60 31.2196 60 31.5646V33.9444C60 35.0346 59.1181 35.919 58.0294 35.919ZM24.9631 31.0824C24.1342 31.0824 23.4561 31.762 23.4561 32.5925V35.8517C23.4561 36.6823 24.1342 37.3618 24.9631 37.3618H26.5122V38.8759C26.5122 39.6594 27.1519 40.3004 27.9338 40.3004H32.0663C32.8482 40.3004 33.4879 39.6594 33.4879 38.8759V37.3618H35.0371C35.8659 37.3618 36.544 36.6823 36.544 35.8517V32.5925C36.544 31.762 35.8659 31.0824 35.0371 31.0824H24.9631ZM30.0001 9.18528C35.0346 9.18528 39.1158 13.2749 39.1158 18.3197C39.1158 23.3098 36.1062 23.1272 35.1442 29.3307C35.1086 29.3296 35.0729 29.3287 35.0371 29.3287H30.8751V23.1551L34.3166 21.164C34.5967 21.0027 34.7536 20.7091 34.7538 20.4071H34.7574V15.915C34.7574 15.5608 34.5478 15.2558 34.2462 15.1174L30.4341 12.912C30.1512 12.7492 29.8154 12.763 29.5537 12.919L25.6833 15.1581C25.4032 15.3195 25.2463 15.6131 25.2461 15.915H25.2424V20.4074C25.2424 20.7615 25.4521 21.0666 25.7537 21.205L29.1251 23.1554V29.3289H24.9631C24.9272 29.3289 24.8914 29.3297 24.8558 29.3309C23.8938 23.1273 20.8843 23.3099 20.8843 18.3198C20.8843 13.275 24.9656 9.18528 30.0001 9.18528ZM44.5894 12.7597C44.1723 13 43.6397 12.8558 43.3999 12.4378C43.1602 12.0198 43.304 11.4861 43.7212 11.2459L46.2593 9.77749C46.6764 9.53725 47.209 9.68142 47.4488 10.0994C47.6885 10.5174 47.5447 11.0511 47.1275 11.2913L44.5894 12.7597ZM38.9279 6.4428C38.6882 6.86078 38.1557 7.00495 37.7384 6.76471C37.3212 6.52447 37.1774 5.99088 37.4172 5.57277L38.8825 3.02945C39.1223 2.61147 39.6548 2.4673 40.072 2.70754C40.4892 2.94778 40.633 3.48137 40.3933 3.89947L38.9279 6.4428ZM16.279 11.2459C16.6961 11.4861 16.84 12.0197 16.6002 12.4378C16.3605 12.8558 15.828 13 15.4107 12.7597L12.8726 11.2913C12.4555 11.0511 12.3116 10.5175 12.5513 10.0994C12.7911 9.68142 13.3236 9.53725 13.7408 9.77749L16.279 11.2459ZM22.583 5.5729C22.8227 5.99088 22.6788 6.52459 22.2617 6.76483C21.8446 7.00508 21.312 6.86091 21.0722 6.44293L19.6068 3.8996C19.3671 3.48162 19.511 2.9479 19.9281 2.70766C20.3452 2.46742 20.8778 2.61159 21.1176 3.02957L22.583 5.5729ZM30.8751 3.81355C30.8751 4.29779 30.4833 4.69034 30.0001 4.69034C29.5168 4.69034 29.1251 4.29779 29.1251 3.81355V0.876793C29.1251 0.392553 29.5168 0 30.0001 0C30.4833 0 30.8751 0.392553 30.8751 0.876793V3.81355ZM29.1251 21.1392V18.663L26.9926 17.4293V19.9055L29.1251 21.1392ZM30.8751 18.663V21.1392L33.0076 19.9055V17.4293L30.8751 18.663ZM32.1402 15.915L30.0001 14.6769L27.8599 15.915L30.0001 17.1532L32.1402 15.915Z" fill="#FFDAA8"/>
</svg>
