<svg width="60" height="60" viewBox="0 0 60 60" fill="none" xmlns="http://www.w3.org/2000/svg">
<path d="M21.5625 45C21.5621 45.9642 21.7486 46.9193 22.1117 47.8125H37.888C38.2512 46.9193 38.4377 45.9642 38.4372 45V44.0625H21.5625V45Z" fill="#FFDAA8"/>
<path d="M37.4998 39.375H22.5C22.2513 39.375 22.0129 39.4738 21.8371 39.6496C21.6613 39.8254 21.5625 40.0639 21.5625 40.3125V42.1875H38.4372V40.3125C38.4372 40.0639 38.3385 39.8254 38.1627 39.6496C37.9868 39.4738 37.7484 39.375 37.4998 39.375Z" fill="#FFDAA8"/>
<path d="M29.0632 52.5H30.9382C32.0616 52.4999 33.1705 52.2471 34.1829 51.7602C35.1953 51.2734 36.0851 50.565 36.7866 49.6875H23.2148C23.9163 50.565 24.8062 51.2734 25.8185 51.7602C26.8309 52.2471 27.9399 52.4999 29.0632 52.5Z" fill="#FFDAA8"/>
<path d="M30.0006 7.5C26.6077 7.50077 23.3152 8.65165 20.6607 10.7648C18.0062 12.8779 16.1463 15.8285 15.3848 19.1349C14.6232 22.4413 15.0049 25.9082 16.4676 28.9696C17.9302 32.0311 20.3875 34.5064 23.4382 35.9913V37.5H36.563V35.9913C39.614 34.5066 42.0715 32.0314 43.5345 28.9698C44.9974 25.9083 45.3792 22.4412 44.6176 19.1346C43.856 15.8281 41.996 12.8774 39.3412 10.7642C36.6864 8.65112 33.3937 7.50042 30.0006 7.5ZM34.3388 23.5898L29.6514 30.1523L26.5998 27.9727L29.1696 24.375H27.1881C26.8436 24.375 26.5058 24.2801 26.2117 24.1007C25.9175 23.9213 25.6786 23.6643 25.5209 23.358C25.3633 23.0516 25.2931 22.7078 25.318 22.3642C25.343 22.0206 25.4621 21.6905 25.6624 21.4102L30.3498 14.8477L33.4013 17.0273L30.8315 20.625H32.813C33.1575 20.625 33.4954 20.7199 33.7895 20.8993C34.0836 21.0787 34.3226 21.3357 34.4802 21.642C34.6379 21.9484 34.7081 22.2922 34.6831 22.6358C34.6582 22.9794 34.539 23.3095 34.3388 23.5898Z" fill="#FFDAA8"/>
<path d="M3.75088 30C3.74787 24.6701 5.37014 19.466 8.40127 15.082L9.4318 19.2043L13.0697 18.295L11.1947 10.795C11.0933 10.3894 10.8592 10.0293 10.5296 9.77201C10.2 9.51473 9.79389 9.37499 9.37579 9.375H0.938419V13.125H5.19601C2.12818 17.6344 0.347657 22.8947 0.0459465 28.3404C-0.255764 33.7861 0.932751 39.211 3.48367 44.0316C6.03458 48.8523 9.85138 52.8864 14.5236 55.6999C19.1958 58.5135 24.5465 60.0002 30.0005 60V56.25C15.5264 56.25 3.75088 44.4743 3.75088 30Z" fill="#FFDAA8"/>
<path d="M59.9995 30C59.9995 22.0435 56.8389 14.4129 51.2129 8.7868C45.5869 3.16071 37.9564 0 30 0V3.75C44.4741 3.75 56.2496 15.5257 56.2496 30C56.2526 35.3299 54.6303 40.534 51.5992 44.918L50.5687 40.7957L46.9308 41.705L48.8057 49.205C48.9072 49.6106 49.1413 49.9707 49.4709 50.228C49.8005 50.4853 50.2066 50.625 50.6247 50.625H59.0621V46.875H54.8045C58.1925 41.8999 60.0029 36.0193 59.9995 30Z" fill="#FFDAA8"/>
</svg>
