<svg width="60" height="60" viewBox="0 0 60 60" fill="none" xmlns="http://www.w3.org/2000/svg">
<g clip-path="url(#clip0_7063_5937)">
<path fill-rule="evenodd" clip-rule="evenodd" d="M33.4467 60H26.5885C25.041 60 23.7749 58.7691 23.5639 57.0457L22.9308 51.3834C21.9109 51.0317 20.891 50.6096 19.9062 50.1172L15.4396 53.7046C14.1032 54.7597 12.3095 54.7597 11.2192 53.6342L6.36577 48.8159C5.2755 47.6905 5.24033 45.932 6.3306 44.5955L9.91794 40.0938C9.42556 39.1442 9.00352 38.1243 8.65182 37.1043L2.95428 36.4713C1.26612 36.2603 0 34.9941 0 33.4467V26.5885C0 25.041 1.26612 23.7749 2.95428 23.5639L8.65182 22.9308C9.00352 21.9109 9.42556 20.891 9.91794 19.9062L6.3306 15.4396C5.24033 14.1032 5.2755 12.3095 6.36577 11.2192L11.2192 6.40094C12.3095 5.2755 14.1032 5.24033 15.4396 6.3306L19.9062 9.91794C20.891 9.42556 21.9109 9.00352 22.9308 8.65182L23.5639 2.95428C23.7749 1.26612 25.041 0 26.5885 0H33.4467C34.9941 0 36.2603 1.26612 36.4361 2.95428L37.0692 8.65182C38.1243 9.00352 39.1442 9.42556 40.0938 9.91794L44.5955 6.3306C45.932 5.24033 47.6905 5.2755 48.8159 6.40094L53.6342 11.2192C54.7597 12.3095 54.7597 14.1032 53.7046 15.4396L50.1172 19.9062C50.6096 20.891 51.0317 21.9109 51.3834 22.9308L57.0809 23.5639C58.7691 23.7749 60 25.041 60 26.5885V33.4115C60 34.9941 58.7691 36.2603 57.0809 36.4361L51.3834 37.0692C51.0317 38.1243 50.6096 39.109 50.1172 40.0938L53.7046 44.5955C54.7597 45.932 54.7597 47.6905 53.6342 48.8159L48.8159 53.6342C47.6905 54.7597 45.932 54.7597 44.5955 53.7046L40.129 50.1172C39.1442 50.6096 38.1243 51.0317 37.1043 51.3834L36.4713 57.0457C36.2603 58.7691 34.9941 60 33.4467 60ZM30 47.3036C20.4689 47.3036 12.7315 39.5662 12.7315 30C12.7315 20.4689 20.4689 12.7315 30 12.7315C39.5311 12.7315 47.3036 20.4689 47.3036 30C47.3036 39.5662 39.5311 47.3036 30 47.3036Z" fill="#FFDAA8"/>
<path fill-rule="evenodd" clip-rule="evenodd" d="M20.2933 30L24.5137 34.2556C25.393 35.1348 24.7951 36.6471 23.529 36.6471C23.1421 36.6471 22.7904 36.4713 22.5442 36.2251L17.3039 31.0199C16.7763 30.4572 16.7763 29.5779 17.3039 29.0152L22.5442 23.8101C22.8959 23.4584 23.3883 23.2825 23.8807 23.4232C24.9006 23.7046 25.3226 25.0058 24.5137 25.7796L20.2933 30ZM39.7071 30L35.4867 25.7796C35.135 25.4279 34.9944 24.9355 35.135 24.4431C35.4164 23.4232 36.6825 23.0012 37.4914 23.8101L42.6966 29.0152C43.2593 29.5428 43.2593 30.4572 42.6966 30.9847L37.4914 36.2251C37.2101 36.4713 36.8584 36.6471 36.5067 36.6471C35.2406 36.6471 34.6075 35.0996 35.4867 34.2204L39.7071 30ZM26.6239 37.456C25.5688 37.456 24.8654 36.2954 25.4281 35.3458L32.3918 23.2825C32.638 22.8253 33.0952 22.5439 33.6227 22.5439C34.6778 22.5791 35.3812 23.7046 34.8185 24.6893L27.8549 36.7526C27.6087 37.2098 27.1515 37.456 26.6239 37.456Z" fill="#FFDAA8"/>
</g>
<defs>
<clipPath id="clip0_7063_5937">
<rect width="60" height="60" fill="white"/>
</clipPath>
</defs>
</svg>
