<svg width="59" height="60" viewBox="0 0 59 60" fill="none" xmlns="http://www.w3.org/2000/svg">
<path d="M44.8667 21.5772L55.4843 15.4652C57.7266 19.612 59 24.3565 59 29.3983H46.7498C46.7498 26.5818 46.0704 23.9236 44.8667 21.5772ZM29.4999 44.2007C21.9592 44.2007 15.8458 38.1054 15.8458 30.5868H0L0.00011924 34.0628C0.00011924 35.0532 0.812768 35.8636 1.80623 35.8636H5.09544C7.08499 35.8636 8.78383 36.9954 9.54511 38.8281C10.3065 40.6608 9.90793 42.6588 8.50099 44.0615L6.17508 46.3805C5.47257 47.081 5.47257 48.2268 6.17508 48.9273L11.1054 53.8431C11.8078 54.5434 12.9572 54.5434 13.6596 53.8431L15.9855 51.5241C17.3923 50.1214 19.3962 49.724 21.2342 50.4831C23.0723 51.2422 24.2075 52.936 24.2075 54.9197V58.1992C24.2075 59.1896 25.0202 60 26.0136 60H32.9861C33.9795 60 34.7922 59.1896 34.7922 58.1992V54.9196C34.7922 52.9359 35.9272 51.242 37.7654 50.483C39.6035 49.724 41.6074 50.1214 43.0141 51.5241L45.34 53.8431C46.0424 54.5434 47.1919 54.5434 47.8942 53.8431L52.8246 48.9273C53.527 48.2268 53.527 47.081 52.8246 46.3805L50.4987 44.0615C49.0918 42.6588 48.6934 40.6608 49.4545 38.8281C50.2159 36.9954 51.9146 35.8636 53.9042 35.8636H57.1935C58.1869 35.8636 58.9996 35.0533 58.9996 34.0628V30.5868H43.1538C43.1541 38.1054 37.0407 44.2007 29.4999 44.2007ZM43.9751 20.041L54.5926 13.9291C52.1849 10.0555 48.9002 6.78057 45.0145 4.38035L38.8851 14.9656C40.9177 16.2822 42.6545 18.0145 43.9751 20.041ZM43.4746 3.48999C39.5614 1.38711 35.117 0.140113 30.3939 0V12.222C32.8872 12.349 35.2402 13.0047 37.3438 14.0776L43.4746 3.48999ZM29.4999 26.036C29.9327 26.036 30.3516 26.096 30.7482 26.2083L39.6207 20.4957L33.8914 29.3421C34.0041 29.7377 34.0643 30.1552 34.0643 30.5867C34.0643 33.1001 32.0208 35.1375 29.5001 35.1375C26.9793 35.1375 24.9359 33.1001 24.9359 30.5867C24.9357 28.0734 26.9792 26.036 29.4999 26.036ZM27.9676 30.5867C27.9676 31.4305 28.6537 32.1145 29.4999 32.1145C30.3462 32.1145 31.0323 31.4305 31.0323 30.5867C31.0323 29.7429 30.3462 29.059 29.4999 29.059C28.6537 29.059 27.9676 29.7429 27.9676 30.5867ZM29.4999 36.92C25.9925 36.92 23.148 34.0838 23.148 30.5867H17.6337C17.6337 37.121 22.9463 42.418 29.4999 42.418C36.0537 42.418 41.3662 37.121 41.3662 30.5867H35.8519C35.8519 34.084 33.0074 36.92 29.4999 36.92ZM28.606 12.222V0C23.8835 0.140113 19.4399 1.38711 15.5269 3.48928L21.6576 14.0768C23.7609 13.0044 26.1132 12.3488 28.606 12.222ZM20.1134 14.9665L13.9838 4.38118C10.0989 6.7814 6.8149 10.0561 4.40723 13.9291L15.0248 20.041C16.3451 18.0148 18.0813 16.2831 20.1134 14.9665ZM14.1332 21.5772L3.51556 15.4652C1.27321 19.612 0 24.3566 0 29.3983H12.25C12.25 26.5818 12.9292 23.9234 14.1332 21.5772Z" fill="#FB9100"/>
</svg>
