<svg width="60" height="60" viewBox="0 0 60 60" fill="none" xmlns="http://www.w3.org/2000/svg">
<path d="M24.3814 20.2715H22.8359C22.2814 20.2715 21.8359 20.7169 21.8359 21.2715V28.626C21.8359 29.1806 22.2814 29.626 22.8359 29.626H37.145C37.6996 29.626 38.145 29.1806 38.145 28.626V21.2715C38.145 20.7169 37.6996 20.2715 37.145 20.2715H35.5996C35.045 20.2715 34.5996 20.7169 34.5996 21.2715V23.4533C34.5996 23.7533 34.3541 23.9988 34.0541 23.9988H32.3814C32.0814 23.9988 31.8359 23.7533 31.8359 23.4533V21.2715C31.8359 20.7169 31.3905 20.2715 30.8359 20.2715H29.1632C28.6087 20.2715 28.1632 20.7169 28.1632 21.2715V23.4533C28.1632 23.7533 27.9178 23.9988 27.6178 23.9988H25.945C25.645 23.9988 25.3996 23.7533 25.3996 23.4533V21.2715C25.3905 20.726 24.9359 20.2715 24.3814 20.2715Z" fill="#FFDAA8"/>
<path d="M40.9813 50.5898H19.0176C18.3358 50.5898 17.7812 51.1444 17.7812 51.8262V59.0353H42.2176V51.8262C42.2176 51.1444 41.6631 50.5898 40.9813 50.5898ZM38.0722 55.708H21.9267C21.4358 55.708 21.0358 55.308 21.0358 54.8171C21.0358 54.3262 21.4358 53.9262 21.9267 53.9262H38.0631C38.554 53.9262 38.954 54.3262 38.954 54.8171C38.9631 55.308 38.5631 55.708 38.0722 55.708Z" fill="#FFDAA8"/>
<path d="M52.4728 20.9993H49.1183C48.6092 18.5265 47.6364 16.2356 46.3001 14.1993L48.6819 11.8174C49.2546 11.2356 49.2546 10.2902 48.6819 9.70835L45.2273 6.26289C44.6546 5.68107 43.7001 5.68107 43.1183 6.26289L40.7364 8.63562C38.7001 7.29016 36.4092 6.31744 33.9364 5.80835V2.4538C33.9364 1.62653 33.2728 0.962891 32.4364 0.962891H27.5637C26.7364 0.962891 26.0637 1.62653 26.0637 2.4538V5.81744C23.591 6.32653 21.3001 7.29925 19.2728 8.64471L16.891 6.26289C16.3092 5.68107 15.3637 5.68107 14.7819 6.26289L11.3273 9.70835C10.7546 10.2902 10.7455 11.2356 11.3273 11.8174L13.7092 14.2083C12.3728 16.2356 11.4001 18.5356 10.891 20.9993H7.51825C6.69098 20.9993 6.02734 21.6629 6.02734 22.4902V27.372C6.02734 28.1993 6.69098 28.8629 7.51825 28.8629H10.891C11.4001 31.3356 12.3637 33.6265 13.7092 35.6629L11.3364 38.0447C10.7546 38.6265 10.7546 39.572 11.3364 40.1538L14.7819 43.5993C15.3637 44.1811 16.3092 44.1811 16.891 43.5993L19.2728 41.2174C20.291 41.8902 21.3637 42.4629 22.5001 42.9447C23.4728 41.1174 23.9819 39.0265 24.2183 37.0447C19.691 34.8811 16.5546 30.2811 16.5546 24.9174C16.5546 17.4993 22.5728 11.4811 30.0001 11.4811C37.4273 11.4811 43.4455 17.4993 43.4455 24.9174C43.4455 30.272 40.3092 34.8811 35.7819 37.0447C36.0183 39.0174 36.5183 41.1174 37.5001 42.9447C38.6364 42.472 39.7273 41.8902 40.7455 41.2174L43.1183 43.5993C43.7001 44.1811 44.6546 44.1811 45.2273 43.5993L48.6819 40.1538C49.2546 39.572 49.2546 38.6265 48.6819 38.0447L46.3001 35.6629C47.6455 33.6265 48.6092 31.3356 49.1183 28.8629H52.4728C53.3001 28.8629 53.9728 28.1993 53.9728 27.372V22.4902C53.9728 21.672 53.3001 20.9993 52.4728 20.9993Z" fill="#FFDAA8"/>
<path d="M36.8083 45.2258C33.6538 40.8531 33.6538 34.4985 33.881 31.4258H26.1265C26.3538 34.4894 26.3538 40.8531 23.1992 45.2258H36.8083Z" fill="#FFDAA8"/>
<path d="M20.0371 48.1805V48.7987H39.9553V48.1805C39.9553 47.5351 39.428 47.0078 38.7826 47.0078H21.2098C20.5644 47.0169 20.0371 47.5351 20.0371 48.1805Z" fill="#FFDAA8"/>
</svg>
