<svg width="60" height="60" viewBox="0 0 60 60" fill="none" xmlns="http://www.w3.org/2000/svg">
<g clip-path="url(#clip0_7063_5844)">
<path d="M23.3926 16.9888C23.5511 19.0189 26.1617 20.1306 28.0487 18.9772C29.7085 17.9619 31.9744 19.0194 31.9744 20.8113V28.1836H38.1902C37.0863 24.1783 40.6604 20.2764 45.4146 20.568C49.5976 20.8256 52.6997 24.4044 51.6551 28.1836H57.9337C63.1874 21.1257 57.8964 10.9145 47.6586 10.4474C48.8162 5.01562 44.1025 0.00878906 37.9252 0.00878906C35.6938 0.00878906 33.6323 0.667851 31.9744 1.77808V12.7812C31.9744 14.5718 29.7102 15.631 28.0484 14.6153C26.0293 13.381 23.2175 14.7444 23.3926 16.9888Z" fill="#FB9100"/>
<path d="M10.5502 28.184C12.5658 28.184 13.7577 30.1963 12.6141 31.6726C11.2315 33.4576 12.7495 35.9636 15.2862 35.808C17.5763 35.6669 18.8212 33.3456 17.5247 31.6721C16.3817 30.1965 17.5729 28.184 19.5891 28.184H28.0196V22.7764C23.7568 23.7069 19.7368 20.9402 19.4473 17.2322C19.119 13.0257 23.4922 9.82896 28.0196 10.8139V1.77854C20.9221 -2.97412 10.7544 2.4526 12.3119 10.3315C2.01306 10.8177 -3.19883 21.0511 2.10037 28.184H10.5502Z" fill="#FB9100"/>
<path d="M57.8676 31.6983H49.4439C47.4273 31.6983 46.2366 29.6857 47.3797 28.2101C48.6771 26.536 47.4289 24.2153 45.1412 24.0744C42.6049 23.9179 41.086 26.424 42.4691 28.2098C43.6123 29.6861 42.4213 31.6983 40.4051 31.6983H31.9746V37.1029C36.4891 36.1208 40.876 39.3044 40.5469 43.521C40.2573 47.2305 36.2362 49.9949 31.9746 49.0654V58.2213C39.0721 62.9739 49.2398 57.5472 47.6823 49.6683C57.7336 49.1936 63.3206 39.1742 57.8676 31.6983Z" fill="#FB9100"/>
<path d="M36.6022 43.2786C36.7772 41.0354 33.9656 39.6708 31.9465 40.9055C30.2856 41.9202 28.0204 40.8635 28.0204 39.0714V31.6992H21.8011C22.8777 35.5922 19.5405 39.3302 15.0617 39.3302C10.5406 39.3302 7.27568 35.545 8.33621 31.6992H2.10178C-3.19452 38.8314 2.00721 49.0815 12.3363 49.5528C11.1787 54.9846 15.8923 59.9914 22.0696 59.9914C24.3011 59.9914 26.3625 59.3324 28.0205 58.2221V47.1016C28.0205 45.3112 30.2848 44.2516 31.9461 45.2674C33.8292 46.419 36.4434 45.313 36.6022 43.2786Z" fill="#FB9100"/>
</g>
<defs>
<clipPath id="clip0_7063_5844">
<rect width="60" height="60" fill="white"/>
</clipPath>
</defs>
</svg>
