<svg width="60" height="60" viewBox="0 0 60 60" fill="none" xmlns="http://www.w3.org/2000/svg">
<g clip-path="url(#clip0_7063_5927)">
<path d="M15.2623 16.2031L10.0641 16.6047C8.6177 16.7165 7.32946 17.4746 6.52955 18.6845L0.534634 27.7515C-0.0720405 28.6691 -0.168485 29.8174 0.276472 30.8233C0.721547 31.8293 1.63619 32.5303 2.72309 32.6987L7.48263 33.4358C8.59602 27.5272 11.2613 21.6332 15.2623 16.2031Z" fill="#FFDAA8"/>
<path d="M26.5645 52.5179L27.3017 57.2775C27.4701 58.3644 28.1711 59.279 29.1769 59.724C29.5954 59.9091 30.0383 60.0005 30.4791 60.0005C31.0982 60.0005 31.7129 59.8202 32.2488 59.4658L41.316 53.471C42.526 52.671 43.284 51.3826 43.3956 49.9364L43.7972 44.7383C38.367 48.7394 32.4731 51.4047 26.5645 52.5179Z" fill="#FFDAA8"/>
<path d="M24.7737 49.2188C24.9389 49.2188 25.1051 49.2052 25.2709 49.1776C27.7464 48.7637 30.1323 48.0664 32.4083 47.1538L12.8463 27.5918C11.9337 29.8677 11.2364 32.2536 10.8225 34.7292C10.6594 35.705 10.9867 36.6991 11.6862 37.3987L22.6014 48.3139C23.1822 48.8946 23.966 49.2188 24.7737 49.2188Z" fill="#FFDAA8"/>
<path d="M55.2163 26.6017C60.0032 17.347 60.1805 7.56709 59.9303 2.98041C59.8447 1.40882 58.5917 0.155858 57.02 0.0701948C56.2732 0.0294138 55.3881 0 54.3905 0C49.2617 0 41.1464 0.77683 33.3987 4.78426C27.2415 7.96904 19.1677 14.9816 14.4043 24.1974C14.4605 24.2413 14.5155 24.288 14.5673 24.3398L35.6609 45.4334C35.7127 45.4851 35.7592 45.54 35.8032 45.5962C45.0189 40.8327 52.0315 32.7589 55.2163 26.6017ZM34.8868 12.6843C38.3134 9.25762 43.8893 9.25727 47.3161 12.6843C48.9762 14.3442 49.8904 16.5514 49.8904 18.899C49.8904 21.2466 48.9762 23.4538 47.3161 25.1138C45.603 26.8269 43.3518 27.6837 41.1015 27.6839C38.8505 27.684 36.6004 26.8274 34.8868 25.1138C33.2267 23.4538 32.3124 21.2466 32.3124 18.899C32.3124 16.5514 33.2267 14.3442 34.8868 12.6843Z" fill="#FFDAA8"/>
<path d="M37.3727 22.6287C39.4287 24.6847 42.7744 24.6848 44.8305 22.6287C45.8264 21.6326 46.375 20.3084 46.375 18.8998C46.375 17.4912 45.8264 16.167 44.8305 15.171C43.8025 14.1429 42.452 13.6289 41.1016 13.6289C39.7512 13.6289 38.4007 14.1429 37.3728 15.171C36.3768 16.167 35.8281 17.4912 35.8281 18.8998C35.8281 20.3084 36.3767 21.6327 37.3727 22.6287Z" fill="#FFDAA8"/>
<path d="M1.79303 49.4461C2.24291 49.4461 2.69279 49.2746 3.03592 48.9312L8.77494 43.1922C9.46143 42.5057 9.46143 41.3928 8.77494 40.7063C8.08858 40.0198 6.97553 40.0198 6.28904 40.7063L0.55002 46.4453C-0.136465 47.1318 -0.136465 48.2447 0.55002 48.9312C0.893262 49.2744 1.34314 49.4461 1.79303 49.4461Z" fill="#FFDAA8"/>
<path d="M14.0346 45.966C13.3482 45.2796 12.2351 45.2796 11.5487 45.966L0.514863 56.9998C-0.171621 57.6863 -0.171621 58.7992 0.514863 59.4857C0.858105 59.829 1.30799 60.0005 1.75787 60.0005C2.20775 60.0005 2.65764 59.829 3.00076 59.4856L14.0344 48.4519C14.721 47.7654 14.721 46.6525 14.0346 45.966Z" fill="#FFDAA8"/>
<path d="M16.8085 51.2238L11.0696 56.9629C10.3831 57.6494 10.3831 58.7623 11.0696 59.4488C11.4128 59.792 11.8627 59.9637 12.3124 59.9637C12.7622 59.9637 13.2122 59.7921 13.5553 59.4488L19.2944 53.7097C19.9808 53.0233 19.9808 51.9103 19.2944 51.2238C18.608 50.5374 17.4949 50.5374 16.8085 51.2238Z" fill="#FFDAA8"/>
</g>
<defs>
<clipPath id="clip0_7063_5927">
<rect width="60" height="60" fill="white"/>
</clipPath>
</defs>
</svg>
