<svg width="54" height="60" viewBox="0 0 54 60" fill="none" xmlns="http://www.w3.org/2000/svg">
<path fill-rule="evenodd" clip-rule="evenodd" d="M26.0095 56.2666L23.6294 59.5935C23.3006 60.0866 22.5567 60.1194 22.04 59.7552C21.5077 59.3754 21.3354 58.6565 21.672 58.1867L24.0365 54.8589C24.3966 54.3501 25.1404 54.3439 25.6337 54.6964C26.174 55.0778 26.3384 55.7968 26.0095 56.2666ZM22.5175 53.7836C22.8541 53.314 22.682 52.5949 22.1495 52.2143C21.6406 51.8517 20.9046 51.8829 20.5523 52.3761L18.1878 55.7038C17.8589 56.1735 18.0233 56.8925 18.5558 57.2731C19.0569 57.6303 19.7929 57.6146 20.153 57.1113L22.5175 53.7836ZM19.0412 51.3015L16.6689 54.6284C16.3166 55.1278 15.5806 55.1513 15.0717 54.7909C14.5393 54.4096 14.3671 53.6914 14.7037 53.2208L17.0682 49.8939C17.4362 49.3882 18.1721 49.3773 18.6732 49.7322C19.2057 50.1136 19.3779 50.8326 19.0412 51.3015ZM15.5571 48.8202C15.8859 48.3496 15.7216 47.6314 15.1891 47.2494C14.6958 46.8976 13.952 46.9031 13.5918 47.4119L11.2194 50.7388C10.8827 51.2084 11.055 51.9275 11.5952 52.3089C12.1042 52.6699 12.8323 52.6441 13.1925 52.1471L15.5571 48.8202ZM6.65492 31.2961V47.4987C6.65492 48.0348 6.2165 48.4716 5.68412 48.4716H0.970798C0.438425 48.4716 0 48.0348 0 47.4987V31.2961C0 30.7592 0.438425 30.3231 0.970798 30.3231H5.68412C6.2165 30.3231 6.65492 30.7592 6.65492 31.2961ZM54 31.2961V47.4987C54 48.0348 53.5616 48.4716 53.0292 48.4716H48.3159C47.7835 48.4716 47.3451 48.0348 47.3451 47.4987V31.2961C47.3451 30.7592 47.7835 30.3231 48.3159 30.3231H53.0292C53.5616 30.3231 54 30.7592 54 31.2961ZM41.1517 35.3224L45.4893 34.1227V46.0323C44.5341 46.4754 43.4066 46.9842 42.381 47.3476C40.815 47.9055 40.314 47.8142 40.2279 47.7876L32.3435 40.5648C31.0439 39.3722 29.0003 39.6637 27.6615 40.4382C24.7881 42.0919 21.0534 43.5627 17.0838 40.8133L29.9947 32.3056C30.6054 31.9157 31.5371 31.6445 32.3122 32.0516L38.153 35.1308C38.9987 35.5756 40.0087 35.6406 41.1517 35.3224ZM38.9987 49.1789L31.0909 41.9318C30.5036 41.4027 29.3684 41.5957 28.5855 42.0444C26.7377 43.1143 24.3497 44.217 21.7033 44.2177C19.5659 44.2177 17.2405 43.4956 14.8838 41.4495C14.4218 41.0494 14.4767 40.3109 14.9856 39.9755L25.344 33.1505L23.2692 31.7243C22.8308 31.4187 21.9148 31.0155 21.2883 31.4406L16.1678 34.9379C14.0147 36.4055 10.7027 35.1864 8.51046 34.2611V46.3348C9.62218 46.703 10.5461 47.0835 11.2664 47.4705L12.0806 46.3373C13.5683 44.2373 17.0054 45.079 17.5221 47.6565C19.1507 47.4501 20.6853 48.5537 21.0062 50.1386C22.6348 49.9323 24.1536 51.0358 24.4982 52.6208C25.2655 52.5223 26.0719 52.7263 26.7139 53.1867C28.0919 54.1683 28.4521 56.0315 27.5203 57.3404L26.526 58.7354C27.3324 59.08 28.4364 59.1348 29.2819 58.5032C29.5794 58.2844 29.7752 58.0585 29.8769 57.8342C31.1133 55.0743 33.3938 55.9221 34.1832 54.1923C34.7155 53.0395 35.7334 52.1854 37.0566 51.786C37.6752 51.5999 38.2937 51.1506 38.552 50.5722C38.7477 50.144 39.014 49.7555 39.3349 49.4172C39.2179 49.3516 39.1004 49.2734 38.9987 49.1789ZM18.0313 14.1369C18.4384 13.7024 19.1274 13.6805 19.5659 14.0885L24.2245 18.458L33.8 8.38033C34.215 7.94664 34.8962 7.9286 35.3346 8.33967C35.7653 8.7515 35.7887 9.43538 35.3738 9.86831L25.0545 20.7267C24.6396 21.1589 23.9662 21.1785 23.5278 20.7721L18.0785 15.6648C17.6476 15.256 17.6163 14.5723 18.0313 14.1369ZM21.5545 26.6539C23.23 27.6027 25.1012 28.664 27.0039 30.0542C28.9064 28.6639 30.7777 27.6026 32.461 26.6539C37.0647 24.0444 40.1104 22.3211 40.1104 16.4667V4.79228C36.3132 3.83266 31.8268 2.50161 27.0039 0C22.181 2.50161 17.6946 3.83266 13.8972 4.79228V16.4666C13.8972 22.3211 16.9429 24.0444 21.5545 26.6539Z" fill="#FB9100"/>
</svg>
