<svg width="60" height="60" viewBox="0 0 60 60" fill="none" xmlns="http://www.w3.org/2000/svg">
<path fill-rule="evenodd" clip-rule="evenodd" d="M23.6925 45.482L29.3862 51.1757C30.0708 51.8603 30.0708 52.977 29.3862 53.6616L27.0372 56.0106C26.3525 56.6952 25.2359 56.6952 24.5513 56.0106L17.5214 48.9808L22.9286 45.8589C23.1826 45.7314 23.4373 45.6058 23.6925 45.482ZM57.8561 23.907C58.5935 24.1468 58.997 24.9391 58.7572 25.6765C58.5174 26.414 57.7252 26.8175 56.9877 26.5777L51.874 24.9162C51.1365 24.6764 50.7331 23.8841 50.9728 23.1467C51.2126 22.4092 52.0049 22.0057 52.7424 22.2456L57.8561 23.907ZM52.0648 16.385C51.3921 16.7733 50.5321 16.5428 50.1438 15.8702C49.7555 15.1976 49.986 14.3375 50.6585 13.9492L55.2775 11.2824C55.9501 10.894 56.8102 11.1245 57.1984 11.7971C57.5868 12.4697 57.3563 13.3298 56.6837 13.7181L52.0648 16.385ZM44.2928 4.58933C44.4538 3.83078 45.1993 3.34644 45.958 3.50745C46.7166 3.66847 47.2009 4.41402 47.0399 5.17269L45.9218 10.4321C45.7608 11.1906 45.0152 11.675 44.2567 11.5139C43.4981 11.3529 43.0138 10.6074 43.1748 9.84882L44.2928 4.58933ZM29.5938 6.20195C28.2505 6.97749 27.7859 8.7114 28.5615 10.0547L43.9767 36.7547C44.7524 38.0982 46.4862 38.5626 47.8296 37.787C49.1729 37.0115 49.6375 35.2776 48.8619 33.9343L43.6177 24.851L44.3031 24.4553C46.6922 23.0759 47.5184 19.9927 46.1391 17.6035C44.7597 15.2144 41.6763 14.3882 39.2872 15.7675L38.6018 16.1632L33.4466 7.23413C32.6711 5.89105 30.9373 5.4264 29.5938 6.20195ZM3.41204 42.272L4.64051 44.3999C6.72915 48.0175 11.3978 49.2685 15.0155 47.1798L20.3803 44.0825L10.3283 26.6719L4.96348 29.7693C1.3459 31.8579 0.0949279 36.5266 2.18356 40.1441L3.41204 42.272ZM12.7059 25.1894C18.5259 21.1921 23.0064 16.7458 26.482 12.0781L41.0957 37.3898C35.3155 38.0658 29.2246 39.723 22.8529 42.7646L12.7059 25.1894Z" fill="#FFDAA8"/>
</svg>
