<svg width="60" height="60" viewBox="0 0 60 60" fill="none" xmlns="http://www.w3.org/2000/svg">
<path d="M26.95 0C14.2953 0 4 10.2954 4 22.95C4 35.6047 14.2954 45.9001 26.95 45.9001C39.6045 45.9001 49.8999 35.6047 49.8999 22.95C49.8999 10.2954 39.6047 0 26.95 0ZM37.7193 37.7729L26.95 32.6765L16.1806 37.7729L17.6995 25.9558L9.52479 17.2885L21.2329 15.0815L26.95 4.62809L32.6669 15.0812L44.3751 17.2882L36.2004 25.9557L37.7193 37.7729Z" fill="#FB9100"/>
<path d="M30.3803 18.2281L26.9494 11.9551L23.5185 18.2281L16.4922 19.5526L21.3981 24.7541L20.4865 31.8458L26.9494 28.7873L33.4123 31.8458L32.5007 24.7541L37.4066 19.5526L30.3803 18.2281Z" fill="#FB9100"/>
<path d="M10.918 51.967C12.4701 51.7415 13.9565 51.2164 15.3089 50.4149V46.7311C13.768 45.9753 12.2981 45.0659 10.918 44.0107V51.967Z" fill="#FB9100"/>
<path d="M38.5898 50.4149C39.9422 51.2164 41.4286 51.7415 42.9807 51.967V44.0107C41.6006 45.0659 40.1307 45.9752 38.5898 46.7311V50.4149Z" fill="#FB9100"/>
<path d="M18.8242 48.1494V59.9999C21.4268 59.6242 23.8199 58.4154 25.6942 56.5033L26.9495 55.2226L28.2048 56.5033C30.0791 58.4153 32.4722 59.6242 35.0748 59.9999V48.1494C32.4833 48.9819 29.7499 49.4155 26.9495 49.4155C24.1491 49.4155 21.4157 48.9819 18.8242 48.1494Z" fill="#FB9100"/>
</svg>
