<svg width="60" height="60" viewBox="0 0 60 60" fill="none" xmlns="http://www.w3.org/2000/svg">
<path d="M19.7121 29.9274L23.094 26.532C23.818 25.8051 23.818 24.6287 23.094 23.9018L18.2927 19.0813C17.5687 18.3544 16.3969 18.3544 15.6729 19.0813L12.291 22.4767L19.7121 29.9274Z" fill="#FB9100"/>
<path d="M35.945 36.804C35.221 36.0771 34.0493 36.0771 33.3253 36.804L29.9434 40.1993L37.3645 47.65L40.7464 44.2546C41.4704 43.5278 41.4704 42.3513 40.7464 41.6244L35.945 36.804Z" fill="#FB9100"/>
<path d="M36.765 16.6042C36.6888 16.5468 36.6126 16.4799 36.5554 16.3938C34.8692 13.8975 32.078 12.4054 29.0771 12.3672C29.039 12.3672 29.0104 12.3768 28.9723 12.3768C28.9342 12.3768 28.9057 12.3672 28.8675 12.3672C25.8667 12.4054 23.0755 13.8975 21.3893 16.3938C21.3321 16.4799 21.2559 16.5373 21.1797 16.6042C23.0373 18.8614 25.8286 20.3057 28.9723 20.3057C32.1161 20.3057 34.9073 18.8614 36.765 16.6042Z" fill="#FB9100"/>
<path d="M25.5621 11.0373C25.2763 10.7791 25.0191 10.4826 24.7905 10.1479C24.2189 9.29662 23.914 8.31148 23.914 7.28809C23.914 4.48571 26.1813 2.20938 28.9726 2.20938C31.7638 2.20938 34.0311 4.48571 34.0311 7.28809C34.0311 8.30192 33.7263 9.29662 33.1547 10.1383C32.9356 10.4635 32.6689 10.76 32.3831 11.0278C34.5551 11.7355 36.4604 13.1033 37.8417 14.9874C38.6229 13.5432 39.0706 11.8981 39.0706 10.1479C39.0706 4.5431 34.5456 0 28.9631 0C23.3805 0 18.8555 4.5431 18.8555 10.1479C18.8555 11.9077 19.3127 13.5432 20.0844 14.9874C21.4848 13.1128 23.3996 11.7451 25.5621 11.0373Z" fill="#FB9100"/>
<path d="M28.9062 10.483H28.9729C28.9729 10.483 29.0205 10.483 29.0395 10.483C30.0684 10.4639 31.021 9.94738 31.6022 9.09614C31.9642 8.56054 32.1547 7.93885 32.1547 7.29803C32.1547 5.53818 30.7257 4.10352 28.9729 4.10352C27.22 4.10352 25.791 5.53818 25.791 7.29803C25.791 7.93885 25.9815 8.56054 26.3436 9.09614C26.9247 9.94738 27.8773 10.4639 28.9062 10.483Z" fill="#FB9100"/>
<path d="M51.2445 32.7864H51.3017H51.3588C52.1971 32.7673 52.9783 32.3465 53.4546 31.6483C53.75 31.2083 53.9024 30.7014 53.9024 30.1753C53.9024 28.7311 52.7306 27.5547 51.2921 27.5547C49.8536 27.5547 48.6914 28.7311 48.6914 30.1753C48.6914 30.7014 48.8438 31.2083 49.1487 31.6483C49.625 32.3465 50.4062 32.7673 51.2445 32.7864Z" fill="#FB9100"/>
<path d="M51.3031 23.9014C46.5018 23.9014 42.6055 27.8132 42.6055 32.6337C42.6055 34.097 42.977 35.4552 43.6057 36.6699C44.768 35.1109 46.3398 33.9631 48.1213 33.3319C47.9308 33.1406 47.7498 32.9302 47.5973 32.7006C47.0924 31.945 46.8257 31.0651 46.8257 30.1661C46.8257 27.6889 48.8358 25.6612 51.3031 25.6612C53.7705 25.6612 55.7901 27.6793 55.7901 30.1661C55.7901 31.0651 55.5234 31.945 55.0185 32.6911C54.866 32.9206 54.685 33.131 54.485 33.3223C56.276 33.9536 57.8478 35.1013 59.0005 36.6603C59.6293 35.4552 60.0008 34.0875 60.0008 32.6241C60.0008 27.8132 56.1045 23.9014 51.3031 23.9014Z" fill="#FB9100"/>
<path d="M51.398 34.6709C51.3695 34.6709 51.3409 34.6805 51.3123 34.6805C51.2837 34.6805 51.2551 34.6709 51.2266 34.6709C48.683 34.6996 46.33 35.9717 44.901 38.0758C44.8438 38.1619 44.7676 38.2289 44.6914 38.2862C46.2919 40.1704 48.6639 41.366 51.3123 41.366C53.9702 41.366 56.3423 40.1704 57.9427 38.2862C57.8665 38.2289 57.7903 38.1619 57.7331 38.0758C56.2946 35.9621 53.9321 34.6996 51.398 34.6709Z" fill="#FB9100"/>
<path d="M45.6822 16.537C45.6441 16.5848 45.5965 16.6135 45.5488 16.6518C46.8349 17.943 48.5973 18.7368 50.5598 18.7368C52.5222 18.7368 54.2941 17.9334 55.5707 16.6422C55.523 16.6039 55.4754 16.5752 55.4373 16.5274C54.256 14.9971 52.4841 14.1172 50.5598 14.1172C48.6354 14.1172 46.8635 15.0067 45.6822 16.537Z" fill="#FB9100"/>
<path d="M47.6626 12.7873C47.5673 12.6821 47.4816 12.5673 47.3958 12.443C46.9576 11.7926 46.729 11.0561 46.729 10.2814C46.729 8.16768 48.4438 6.44609 50.5491 6.44609C52.6545 6.44609 54.3692 8.16768 54.3692 10.2814C54.3692 11.0466 54.1406 11.7926 53.7119 12.443C53.6262 12.5673 53.5404 12.6821 53.4452 12.7873C54.6931 13.2751 55.8077 14.0689 56.6937 15.1306C57.2748 14.0976 57.6368 12.9116 57.6368 11.6396C57.6368 7.70859 54.4645 4.5332 50.5586 4.5332C46.6433 4.5332 43.4805 7.71816 43.4805 11.6396C43.4805 12.9116 43.8329 14.0976 44.4236 15.1306C45.3095 14.0689 46.4146 13.2751 47.6626 12.7873Z" fill="#FB9100"/>
<path d="M50.5586 12.2421C51.2064 12.2421 51.8066 11.9265 52.1686 11.3909C52.3877 11.0657 52.502 10.6831 52.502 10.291C52.502 9.21021 51.6256 8.33984 50.5586 8.33984C49.4917 8.33984 48.6152 9.21977 48.6152 10.291C48.6152 10.6831 48.7296 11.0657 48.9582 11.3909C49.3202 11.9265 49.9204 12.2421 50.5586 12.2421Z" fill="#FB9100"/>
<path d="M30.5158 34.5945C30.6301 34.6423 30.7539 34.671 30.8778 34.671C31.2398 34.671 31.5923 34.451 31.7447 34.0971L33.6405 29.5349C33.7643 29.248 33.7262 28.9132 33.5547 28.6454C33.3833 28.3872 33.0879 28.2246 32.7736 28.2246H30.3443L31.5446 25.1066C31.7352 24.6188 31.4875 24.0736 31.0112 23.8919C30.5348 23.7006 29.9823 23.9493 29.8013 24.4275L28.0961 28.8176C27.9817 29.1045 28.0199 29.4297 28.2009 29.6879C28.3723 29.9462 28.6677 30.0992 28.9725 30.0992H31.3636L30.0109 33.3607C29.8108 33.8389 30.0395 34.3936 30.5158 34.5945Z" fill="#FB9100"/>
<path d="M8.18574 14.3278C8.38579 14.5573 8.69064 14.6817 9.00501 14.6434C9.30986 14.6052 9.5766 14.4234 9.7195 14.1461L10.8246 12.0132L13.0728 14.7295C13.2633 14.9495 13.5301 15.0738 13.7968 15.0738C14.0064 15.0738 14.216 15.0069 14.397 14.8538C14.7971 14.5191 14.8543 13.9261 14.5208 13.5244L11.3676 9.71775C11.1675 9.47864 10.8531 9.34473 10.5483 9.38299C10.2339 9.41168 9.95766 9.60297 9.81476 9.88034L8.69064 12.0419L6.49955 9.53602C6.1566 9.14388 5.56596 9.10562 5.17537 9.44994C4.78479 9.79426 4.74668 10.3873 5.08963 10.7794L8.18574 14.3278Z" fill="#FB9100"/>
<path d="M48.6062 48.2713L46.2627 48.9408L46.5675 45.6124C46.6151 45.0959 46.2341 44.6368 45.7197 44.589C45.2052 44.5412 44.748 44.9238 44.7003 45.4402L44.2716 50.1364C44.243 50.4424 44.3669 50.7485 44.6051 50.9493C44.8432 51.1502 45.1671 51.2171 45.4624 51.1311L47.7583 50.4711L47.3392 53.9813C47.282 54.4977 47.644 54.9664 48.1584 55.0238C48.1965 55.0238 48.2346 55.0333 48.2727 55.0333C48.7395 55.0333 49.1492 54.6795 49.2063 54.2012L49.7875 49.2851C49.8256 48.9695 49.7017 48.6634 49.4636 48.453C49.2349 48.2617 48.911 48.1852 48.6062 48.2713Z" fill="#FB9100"/>
<path d="M23.2755 46.8942C20.5605 49.62 16.1497 49.9261 13.2632 47.3915C11.6056 45.9377 10.7863 43.9292 10.7863 41.9111C10.7768 40.0556 11.4818 38.2001 12.9012 36.775L18.398 31.2564L10.9769 23.8057L5.19431 29.6113C-1.73144 36.5646 -1.73144 47.8315 5.19431 54.7753L5.20383 54.7848C12.1296 61.7382 23.3518 61.7382 30.268 54.7848L36.0505 48.9792L28.6294 41.5285L23.2755 46.8942Z" fill="#FB9100"/>
</svg>
